<mxfile host="app.diagrams.net" modified="2024-06-13T15:56:38.642Z" agent="Mozilla/5.0 (Windows NT 10.0; Win64; x64) AppleWebKit/537.36 (KHTML, like Gecko) Chrome/125.0.0.0 Safari/537.36" etag="G1fhw8US7cm1Avar7Wwn" version="24.4.13" type="device">
  <diagram name="Page-1" id="tvAXI1hyVoKwi8Cr2872">
    <mxGraphModel dx="1668" dy="1342" grid="0" gridSize="10" guides="1" tooltips="1" connect="1" arrows="1" fold="1" page="0" pageScale="1" pageWidth="850" pageHeight="1100" math="0" shadow="0">
      <root>
        <mxCell id="0" />
        <mxCell id="1" parent="0" />
        <mxCell id="o_qiAfEK-X4W-5gXMjXQ-1" value="Emp_Company_Profile" style="swimlane;fontStyle=0;childLayout=stackLayout;horizontal=1;startSize=26;horizontalStack=0;resizeParent=1;resizeParentMax=0;resizeLast=0;collapsible=1;marginBottom=0;align=center;fontSize=14;" parent="1" vertex="1">
          <mxGeometry x="-280" y="-270" width="155" height="440" as="geometry" />
        </mxCell>
        <mxCell id="o_qiAfEK-X4W-5gXMjXQ-2" value="Emp.ID" style="text;strokeColor=none;fillColor=none;spacingLeft=4;spacingRight=4;overflow=hidden;rotatable=0;points=[[0,0.5],[1,0.5]];portConstraint=eastwest;fontSize=12;whiteSpace=wrap;html=1;" parent="o_qiAfEK-X4W-5gXMjXQ-1" vertex="1">
          <mxGeometry y="26" width="155" height="30" as="geometry" />
        </mxCell>
        <mxCell id="o_qiAfEK-X4W-5gXMjXQ-3" value="Name" style="text;strokeColor=none;fillColor=none;spacingLeft=4;spacingRight=4;overflow=hidden;rotatable=0;points=[[0,0.5],[1,0.5]];portConstraint=eastwest;fontSize=12;whiteSpace=wrap;html=1;" parent="o_qiAfEK-X4W-5gXMjXQ-1" vertex="1">
          <mxGeometry y="56" width="155" height="24" as="geometry" />
        </mxCell>
        <mxCell id="o_qiAfEK-X4W-5gXMjXQ-4" value="mobno" style="text;strokeColor=none;fillColor=none;spacingLeft=4;spacingRight=4;overflow=hidden;rotatable=0;points=[[0,0.5],[1,0.5]];portConstraint=eastwest;fontSize=12;whiteSpace=wrap;html=1;" parent="o_qiAfEK-X4W-5gXMjXQ-1" vertex="1">
          <mxGeometry y="80" width="155" height="30" as="geometry" />
        </mxCell>
        <mxCell id="o_qiAfEK-X4W-5gXMjXQ-5" value="whatsapp" style="text;strokeColor=none;fillColor=none;spacingLeft=4;spacingRight=4;overflow=hidden;rotatable=0;points=[[0,0.5],[1,0.5]];portConstraint=eastwest;fontSize=12;whiteSpace=wrap;html=1;" parent="o_qiAfEK-X4W-5gXMjXQ-1" vertex="1">
          <mxGeometry y="110" width="155" height="30" as="geometry" />
        </mxCell>
        <mxCell id="o_qiAfEK-X4W-5gXMjXQ-6" value="email" style="text;strokeColor=none;fillColor=none;spacingLeft=4;spacingRight=4;overflow=hidden;rotatable=0;points=[[0,0.5],[1,0.5]];portConstraint=eastwest;fontSize=12;whiteSpace=wrap;html=1;" parent="o_qiAfEK-X4W-5gXMjXQ-1" vertex="1">
          <mxGeometry y="140" width="155" height="30" as="geometry" />
        </mxCell>
        <mxCell id="o_qiAfEK-X4W-5gXMjXQ-7" value="emergency no." style="text;strokeColor=none;fillColor=none;spacingLeft=4;spacingRight=4;overflow=hidden;rotatable=0;points=[[0,0.5],[1,0.5]];portConstraint=eastwest;fontSize=12;whiteSpace=wrap;html=1;" parent="o_qiAfEK-X4W-5gXMjXQ-1" vertex="1">
          <mxGeometry y="170" width="155" height="30" as="geometry" />
        </mxCell>
        <mxCell id="o_qiAfEK-X4W-5gXMjXQ-8" value="DOJ" style="text;strokeColor=none;fillColor=none;spacingLeft=4;spacingRight=4;overflow=hidden;rotatable=0;points=[[0,0.5],[1,0.5]];portConstraint=eastwest;fontSize=12;whiteSpace=wrap;html=1;" parent="o_qiAfEK-X4W-5gXMjXQ-1" vertex="1">
          <mxGeometry y="200" width="155" height="30" as="geometry" />
        </mxCell>
        <mxCell id="o_qiAfEK-X4W-5gXMjXQ-9" value="DOL" style="text;strokeColor=none;fillColor=none;spacingLeft=4;spacingRight=4;overflow=hidden;rotatable=0;points=[[0,0.5],[1,0.5]];portConstraint=eastwest;fontSize=12;whiteSpace=wrap;html=1;" parent="o_qiAfEK-X4W-5gXMjXQ-1" vertex="1">
          <mxGeometry y="230" width="155" height="30" as="geometry" />
        </mxCell>
        <mxCell id="o_qiAfEK-X4W-5gXMjXQ-10" value="branch" style="text;strokeColor=none;fillColor=none;spacingLeft=4;spacingRight=4;overflow=hidden;rotatable=0;points=[[0,0.5],[1,0.5]];portConstraint=eastwest;fontSize=12;whiteSpace=wrap;html=1;" parent="o_qiAfEK-X4W-5gXMjXQ-1" vertex="1">
          <mxGeometry y="260" width="155" height="30" as="geometry" />
        </mxCell>
        <mxCell id="o_qiAfEK-X4W-5gXMjXQ-11" value="department" style="text;strokeColor=none;fillColor=none;spacingLeft=4;spacingRight=4;overflow=hidden;rotatable=0;points=[[0,0.5],[1,0.5]];portConstraint=eastwest;fontSize=12;whiteSpace=wrap;html=1;" parent="o_qiAfEK-X4W-5gXMjXQ-1" vertex="1">
          <mxGeometry y="290" width="155" height="30" as="geometry" />
        </mxCell>
        <mxCell id="o_qiAfEK-X4W-5gXMjXQ-12" value="designation" style="text;strokeColor=none;fillColor=none;spacingLeft=4;spacingRight=4;overflow=hidden;rotatable=0;points=[[0,0.5],[1,0.5]];portConstraint=eastwest;fontSize=12;whiteSpace=wrap;html=1;" parent="o_qiAfEK-X4W-5gXMjXQ-1" vertex="1">
          <mxGeometry y="320" width="155" height="30" as="geometry" />
        </mxCell>
        <mxCell id="o_qiAfEK-X4W-5gXMjXQ-13" value="level" style="text;strokeColor=none;fillColor=none;spacingLeft=4;spacingRight=4;overflow=hidden;rotatable=0;points=[[0,0.5],[1,0.5]];portConstraint=eastwest;fontSize=12;whiteSpace=wrap;html=1;" parent="o_qiAfEK-X4W-5gXMjXQ-1" vertex="1">
          <mxGeometry y="350" width="155" height="30" as="geometry" />
        </mxCell>
        <mxCell id="o_qiAfEK-X4W-5gXMjXQ-14" value="grade" style="text;strokeColor=none;fillColor=none;spacingLeft=4;spacingRight=4;overflow=hidden;rotatable=0;points=[[0,0.5],[1,0.5]];portConstraint=eastwest;fontSize=12;whiteSpace=wrap;html=1;" parent="o_qiAfEK-X4W-5gXMjXQ-1" vertex="1">
          <mxGeometry y="380" width="155" height="30" as="geometry" />
        </mxCell>
        <mxCell id="o_qiAfEK-X4W-5gXMjXQ-15" value="role" style="text;strokeColor=none;fillColor=none;spacingLeft=4;spacingRight=4;overflow=hidden;rotatable=0;points=[[0,0.5],[1,0.5]];portConstraint=eastwest;fontSize=12;whiteSpace=wrap;html=1;" parent="o_qiAfEK-X4W-5gXMjXQ-1" vertex="1">
          <mxGeometry y="410" width="155" height="30" as="geometry" />
        </mxCell>
        <mxCell id="o_qiAfEK-X4W-5gXMjXQ-16" value="Address" style="swimlane;fontStyle=0;childLayout=stackLayout;horizontal=1;startSize=26;horizontalStack=0;resizeParent=1;resizeParentMax=0;resizeLast=0;collapsible=1;marginBottom=0;align=center;fontSize=14;" parent="1" vertex="1">
          <mxGeometry x="3" y="-270" width="130" height="340" as="geometry" />
        </mxCell>
        <mxCell id="o_qiAfEK-X4W-5gXMjXQ-17" value="present_add" style="text;strokeColor=none;fillColor=none;spacingLeft=4;spacingRight=4;overflow=hidden;rotatable=0;points=[[0,0.5],[1,0.5]];portConstraint=eastwest;fontSize=12;whiteSpace=wrap;html=1;" parent="o_qiAfEK-X4W-5gXMjXQ-16" vertex="1">
          <mxGeometry y="26" width="130" height="30" as="geometry" />
        </mxCell>
        <mxCell id="o_qiAfEK-X4W-5gXMjXQ-18" value="present_country" style="text;strokeColor=none;fillColor=none;spacingLeft=4;spacingRight=4;overflow=hidden;rotatable=0;points=[[0,0.5],[1,0.5]];portConstraint=eastwest;fontSize=12;whiteSpace=wrap;html=1;" parent="o_qiAfEK-X4W-5gXMjXQ-16" vertex="1">
          <mxGeometry y="56" width="130" height="24" as="geometry" />
        </mxCell>
        <mxCell id="o_qiAfEK-X4W-5gXMjXQ-19" value="present_state" style="text;strokeColor=none;fillColor=none;spacingLeft=4;spacingRight=4;overflow=hidden;rotatable=0;points=[[0,0.5],[1,0.5]];portConstraint=eastwest;fontSize=12;whiteSpace=wrap;html=1;" parent="o_qiAfEK-X4W-5gXMjXQ-16" vertex="1">
          <mxGeometry y="80" width="130" height="30" as="geometry" />
        </mxCell>
        <mxCell id="o_qiAfEK-X4W-5gXMjXQ-20" value="present_city" style="text;strokeColor=none;fillColor=none;spacingLeft=4;spacingRight=4;overflow=hidden;rotatable=0;points=[[0,0.5],[1,0.5]];portConstraint=eastwest;fontSize=12;whiteSpace=wrap;html=1;" parent="o_qiAfEK-X4W-5gXMjXQ-16" vertex="1">
          <mxGeometry y="110" width="130" height="30" as="geometry" />
        </mxCell>
        <mxCell id="o_qiAfEK-X4W-5gXMjXQ-21" value="present_pincode" style="text;strokeColor=none;fillColor=none;spacingLeft=4;spacingRight=4;overflow=hidden;rotatable=0;points=[[0,0.5],[1,0.5]];portConstraint=eastwest;fontSize=12;whiteSpace=wrap;html=1;" parent="o_qiAfEK-X4W-5gXMjXQ-16" vertex="1">
          <mxGeometry y="140" width="130" height="30" as="geometry" />
        </mxCell>
        <mxCell id="o_qiAfEK-X4W-5gXMjXQ-45" value="permanent_add" style="text;strokeColor=none;fillColor=none;spacingLeft=4;spacingRight=4;overflow=hidden;rotatable=0;points=[[0,0.5],[1,0.5]];portConstraint=eastwest;fontSize=12;whiteSpace=wrap;html=1;" parent="o_qiAfEK-X4W-5gXMjXQ-16" vertex="1">
          <mxGeometry y="170" width="130" height="30" as="geometry" />
        </mxCell>
        <mxCell id="o_qiAfEK-X4W-5gXMjXQ-49" value="permanent_pincode" style="text;strokeColor=none;fillColor=none;spacingLeft=4;spacingRight=4;overflow=hidden;rotatable=0;points=[[0,0.5],[1,0.5]];portConstraint=eastwest;fontSize=12;whiteSpace=wrap;html=1;" parent="o_qiAfEK-X4W-5gXMjXQ-16" vertex="1">
          <mxGeometry y="200" width="130" height="30" as="geometry" />
        </mxCell>
        <mxCell id="o_qiAfEK-X4W-5gXMjXQ-48" value="permanent_city" style="text;strokeColor=none;fillColor=none;spacingLeft=4;spacingRight=4;overflow=hidden;rotatable=0;points=[[0,0.5],[1,0.5]];portConstraint=eastwest;fontSize=12;whiteSpace=wrap;html=1;" parent="o_qiAfEK-X4W-5gXMjXQ-16" vertex="1">
          <mxGeometry y="230" width="130" height="30" as="geometry" />
        </mxCell>
        <mxCell id="o_qiAfEK-X4W-5gXMjXQ-47" value="permanent_state" style="text;strokeColor=none;fillColor=none;spacingLeft=4;spacingRight=4;overflow=hidden;rotatable=0;points=[[0,0.5],[1,0.5]];portConstraint=eastwest;fontSize=12;whiteSpace=wrap;html=1;" parent="o_qiAfEK-X4W-5gXMjXQ-16" vertex="1">
          <mxGeometry y="260" width="130" height="30" as="geometry" />
        </mxCell>
        <mxCell id="o_qiAfEK-X4W-5gXMjXQ-46" value="permanent_country" style="text;strokeColor=none;fillColor=none;spacingLeft=4;spacingRight=4;overflow=hidden;rotatable=0;points=[[0,0.5],[1,0.5]];portConstraint=eastwest;fontSize=12;whiteSpace=wrap;html=1;" parent="o_qiAfEK-X4W-5gXMjXQ-16" vertex="1">
          <mxGeometry y="290" width="130" height="24" as="geometry" />
        </mxCell>
        <mxCell id="o_qiAfEK-X4W-5gXMjXQ-50" value="Emp.ID" style="text;strokeColor=none;fillColor=none;spacingLeft=4;spacingRight=4;overflow=hidden;rotatable=0;points=[[0,0.5],[1,0.5]];portConstraint=eastwest;fontSize=12;whiteSpace=wrap;html=1;" parent="o_qiAfEK-X4W-5gXMjXQ-16" vertex="1">
          <mxGeometry y="314" width="130" height="26" as="geometry" />
        </mxCell>
        <mxCell id="o_qiAfEK-X4W-5gXMjXQ-32" value="Personal_details" style="swimlane;fontStyle=0;childLayout=stackLayout;horizontal=1;startSize=26;horizontalStack=0;resizeParent=1;resizeParentMax=0;resizeLast=0;collapsible=1;marginBottom=0;align=center;fontSize=14;" parent="1" vertex="1">
          <mxGeometry x="190" y="-270" width="130" height="290" as="geometry" />
        </mxCell>
        <mxCell id="o_qiAfEK-X4W-5gXMjXQ-33" value="gender" style="text;strokeColor=none;fillColor=none;spacingLeft=4;spacingRight=4;overflow=hidden;rotatable=0;points=[[0,0.5],[1,0.5]];portConstraint=eastwest;fontSize=12;whiteSpace=wrap;html=1;" parent="o_qiAfEK-X4W-5gXMjXQ-32" vertex="1">
          <mxGeometry y="26" width="130" height="30" as="geometry" />
        </mxCell>
        <mxCell id="o_qiAfEK-X4W-5gXMjXQ-34" value="nationality" style="text;strokeColor=none;fillColor=none;spacingLeft=4;spacingRight=4;overflow=hidden;rotatable=0;points=[[0,0.5],[1,0.5]];portConstraint=eastwest;fontSize=12;whiteSpace=wrap;html=1;" parent="o_qiAfEK-X4W-5gXMjXQ-32" vertex="1">
          <mxGeometry y="56" width="130" height="24" as="geometry" />
        </mxCell>
        <mxCell id="o_qiAfEK-X4W-5gXMjXQ-35" value="DOB" style="text;strokeColor=none;fillColor=none;spacingLeft=4;spacingRight=4;overflow=hidden;rotatable=0;points=[[0,0.5],[1,0.5]];portConstraint=eastwest;fontSize=12;whiteSpace=wrap;html=1;" parent="o_qiAfEK-X4W-5gXMjXQ-32" vertex="1">
          <mxGeometry y="80" width="130" height="30" as="geometry" />
        </mxCell>
        <mxCell id="o_qiAfEK-X4W-5gXMjXQ-36" value="marital_status" style="text;strokeColor=none;fillColor=none;spacingLeft=4;spacingRight=4;overflow=hidden;rotatable=0;points=[[0,0.5],[1,0.5]];portConstraint=eastwest;fontSize=12;whiteSpace=wrap;html=1;" parent="o_qiAfEK-X4W-5gXMjXQ-32" vertex="1">
          <mxGeometry y="110" width="130" height="30" as="geometry" />
        </mxCell>
        <mxCell id="o_qiAfEK-X4W-5gXMjXQ-37" value="anniversary_date" style="text;strokeColor=none;fillColor=none;spacingLeft=4;spacingRight=4;overflow=hidden;rotatable=0;points=[[0,0.5],[1,0.5]];portConstraint=eastwest;fontSize=12;whiteSpace=wrap;html=1;" parent="o_qiAfEK-X4W-5gXMjXQ-32" vertex="1">
          <mxGeometry y="140" width="130" height="30" as="geometry" />
        </mxCell>
        <mxCell id="o_qiAfEK-X4W-5gXMjXQ-39" value="religion" style="text;strokeColor=none;fillColor=none;spacingLeft=4;spacingRight=4;overflow=hidden;rotatable=0;points=[[0,0.5],[1,0.5]];portConstraint=eastwest;fontSize=12;whiteSpace=wrap;html=1;" parent="o_qiAfEK-X4W-5gXMjXQ-32" vertex="1">
          <mxGeometry y="170" width="130" height="30" as="geometry" />
        </mxCell>
        <mxCell id="o_qiAfEK-X4W-5gXMjXQ-51" value="blood" style="text;strokeColor=none;fillColor=none;spacingLeft=4;spacingRight=4;overflow=hidden;rotatable=0;points=[[0,0.5],[1,0.5]];portConstraint=eastwest;fontSize=12;whiteSpace=wrap;html=1;" parent="o_qiAfEK-X4W-5gXMjXQ-32" vertex="1">
          <mxGeometry y="200" width="130" height="30" as="geometry" />
        </mxCell>
        <mxCell id="o_qiAfEK-X4W-5gXMjXQ-52" value="medical_issues" style="text;strokeColor=none;fillColor=none;spacingLeft=4;spacingRight=4;overflow=hidden;rotatable=0;points=[[0,0.5],[1,0.5]];portConstraint=eastwest;fontSize=12;whiteSpace=wrap;html=1;" parent="o_qiAfEK-X4W-5gXMjXQ-32" vertex="1">
          <mxGeometry y="230" width="130" height="30" as="geometry" />
        </mxCell>
        <mxCell id="o_qiAfEK-X4W-5gXMjXQ-53" value="Emp.ID" style="text;strokeColor=none;fillColor=none;spacingLeft=4;spacingRight=4;overflow=hidden;rotatable=0;points=[[0,0.5],[1,0.5]];portConstraint=eastwest;fontSize=12;whiteSpace=wrap;html=1;" parent="o_qiAfEK-X4W-5gXMjXQ-32" vertex="1">
          <mxGeometry y="260" width="130" height="30" as="geometry" />
        </mxCell>
        <mxCell id="o_qiAfEK-X4W-5gXMjXQ-55" value="Educations" style="swimlane;fontStyle=0;childLayout=stackLayout;horizontal=1;startSize=26;horizontalStack=0;resizeParent=1;resizeParentMax=0;resizeLast=0;collapsible=1;marginBottom=0;align=center;fontSize=14;" parent="1" vertex="1">
          <mxGeometry x="540" y="-270" width="130" height="350" as="geometry" />
        </mxCell>
        <mxCell id="o_qiAfEK-X4W-5gXMjXQ-56" value="course" style="text;strokeColor=none;fillColor=none;spacingLeft=4;spacingRight=4;overflow=hidden;rotatable=0;points=[[0,0.5],[1,0.5]];portConstraint=eastwest;fontSize=12;whiteSpace=wrap;html=1;" parent="o_qiAfEK-X4W-5gXMjXQ-55" vertex="1">
          <mxGeometry y="26" width="130" height="30" as="geometry" />
        </mxCell>
        <mxCell id="o_qiAfEK-X4W-5gXMjXQ-57" value="board_name" style="text;strokeColor=none;fillColor=none;spacingLeft=4;spacingRight=4;overflow=hidden;rotatable=0;points=[[0,0.5],[1,0.5]];portConstraint=eastwest;fontSize=12;whiteSpace=wrap;html=1;" parent="o_qiAfEK-X4W-5gXMjXQ-55" vertex="1">
          <mxGeometry y="56" width="130" height="24" as="geometry" />
        </mxCell>
        <mxCell id="o_qiAfEK-X4W-5gXMjXQ-58" value="years_complete" style="text;strokeColor=none;fillColor=none;spacingLeft=4;spacingRight=4;overflow=hidden;rotatable=0;points=[[0,0.5],[1,0.5]];portConstraint=eastwest;fontSize=12;whiteSpace=wrap;html=1;" parent="o_qiAfEK-X4W-5gXMjXQ-55" vertex="1">
          <mxGeometry y="80" width="130" height="30" as="geometry" />
        </mxCell>
        <mxCell id="o_qiAfEK-X4W-5gXMjXQ-59" value="academic_year" style="text;strokeColor=none;fillColor=none;spacingLeft=4;spacingRight=4;overflow=hidden;rotatable=0;points=[[0,0.5],[1,0.5]];portConstraint=eastwest;fontSize=12;whiteSpace=wrap;html=1;" parent="o_qiAfEK-X4W-5gXMjXQ-55" vertex="1">
          <mxGeometry y="110" width="130" height="30" as="geometry" />
        </mxCell>
        <mxCell id="o_qiAfEK-X4W-5gXMjXQ-60" value="mark_type" style="text;strokeColor=none;fillColor=none;spacingLeft=4;spacingRight=4;overflow=hidden;rotatable=0;points=[[0,0.5],[1,0.5]];portConstraint=eastwest;fontSize=12;whiteSpace=wrap;html=1;" parent="o_qiAfEK-X4W-5gXMjXQ-55" vertex="1">
          <mxGeometry y="140" width="130" height="30" as="geometry" />
        </mxCell>
        <mxCell id="o_qiAfEK-X4W-5gXMjXQ-61" value="secure_mark" style="text;strokeColor=none;fillColor=none;spacingLeft=4;spacingRight=4;overflow=hidden;rotatable=0;points=[[0,0.5],[1,0.5]];portConstraint=eastwest;fontSize=12;whiteSpace=wrap;html=1;" parent="o_qiAfEK-X4W-5gXMjXQ-55" vertex="1">
          <mxGeometry y="170" width="130" height="30" as="geometry" />
        </mxCell>
        <mxCell id="o_qiAfEK-X4W-5gXMjXQ-62" value="total_mark" style="text;strokeColor=none;fillColor=none;spacingLeft=4;spacingRight=4;overflow=hidden;rotatable=0;points=[[0,0.5],[1,0.5]];portConstraint=eastwest;fontSize=12;whiteSpace=wrap;html=1;" parent="o_qiAfEK-X4W-5gXMjXQ-55" vertex="1">
          <mxGeometry y="200" width="130" height="30" as="geometry" />
        </mxCell>
        <mxCell id="o_qiAfEK-X4W-5gXMjXQ-63" value="division" style="text;strokeColor=none;fillColor=none;spacingLeft=4;spacingRight=4;overflow=hidden;rotatable=0;points=[[0,0.5],[1,0.5]];portConstraint=eastwest;fontSize=12;whiteSpace=wrap;html=1;" parent="o_qiAfEK-X4W-5gXMjXQ-55" vertex="1">
          <mxGeometry y="230" width="130" height="30" as="geometry" />
        </mxCell>
        <mxCell id="o_qiAfEK-X4W-5gXMjXQ-64" value="certificate" style="text;strokeColor=none;fillColor=none;spacingLeft=4;spacingRight=4;overflow=hidden;rotatable=0;points=[[0,0.5],[1,0.5]];portConstraint=eastwest;fontSize=12;whiteSpace=wrap;html=1;" parent="o_qiAfEK-X4W-5gXMjXQ-55" vertex="1">
          <mxGeometry y="260" width="130" height="30" as="geometry" />
        </mxCell>
        <mxCell id="o_qiAfEK-X4W-5gXMjXQ-89" value="marklist" style="text;strokeColor=none;fillColor=none;spacingLeft=4;spacingRight=4;overflow=hidden;rotatable=0;points=[[0,0.5],[1,0.5]];portConstraint=eastwest;fontSize=12;whiteSpace=wrap;html=1;" parent="o_qiAfEK-X4W-5gXMjXQ-55" vertex="1">
          <mxGeometry y="290" width="130" height="30" as="geometry" />
        </mxCell>
        <mxCell id="o_qiAfEK-X4W-5gXMjXQ-90" value="Emp.ID" style="text;strokeColor=none;fillColor=none;spacingLeft=4;spacingRight=4;overflow=hidden;rotatable=0;points=[[0,0.5],[1,0.5]];portConstraint=eastwest;fontSize=12;whiteSpace=wrap;html=1;" parent="o_qiAfEK-X4W-5gXMjXQ-55" vertex="1">
          <mxGeometry y="320" width="130" height="30" as="geometry" />
        </mxCell>
        <mxCell id="o_qiAfEK-X4W-5gXMjXQ-65" value="family_profile" style="swimlane;fontStyle=0;childLayout=stackLayout;horizontal=1;startSize=26;horizontalStack=0;resizeParent=1;resizeParentMax=0;resizeLast=0;collapsible=1;marginBottom=0;align=center;fontSize=14;" parent="1" vertex="1">
          <mxGeometry x="360" y="-270" width="130" height="380" as="geometry" />
        </mxCell>
        <mxCell id="o_qiAfEK-X4W-5gXMjXQ-66" value="name&lt;span style=&quot;white-space: pre;&quot;&gt;&#x9;&lt;/span&gt;" style="text;strokeColor=none;fillColor=none;spacingLeft=4;spacingRight=4;overflow=hidden;rotatable=0;points=[[0,0.5],[1,0.5]];portConstraint=eastwest;fontSize=12;whiteSpace=wrap;html=1;" parent="o_qiAfEK-X4W-5gXMjXQ-65" vertex="1">
          <mxGeometry y="26" width="130" height="30" as="geometry" />
        </mxCell>
        <mxCell id="o_qiAfEK-X4W-5gXMjXQ-67" value="relation" style="text;strokeColor=none;fillColor=none;spacingLeft=4;spacingRight=4;overflow=hidden;rotatable=0;points=[[0,0.5],[1,0.5]];portConstraint=eastwest;fontSize=12;whiteSpace=wrap;html=1;" parent="o_qiAfEK-X4W-5gXMjXQ-65" vertex="1">
          <mxGeometry y="56" width="130" height="24" as="geometry" />
        </mxCell>
        <mxCell id="o_qiAfEK-X4W-5gXMjXQ-68" value="depedency" style="text;strokeColor=none;fillColor=none;spacingLeft=4;spacingRight=4;overflow=hidden;rotatable=0;points=[[0,0.5],[1,0.5]];portConstraint=eastwest;fontSize=12;whiteSpace=wrap;html=1;" parent="o_qiAfEK-X4W-5gXMjXQ-65" vertex="1">
          <mxGeometry y="80" width="130" height="30" as="geometry" />
        </mxCell>
        <mxCell id="o_qiAfEK-X4W-5gXMjXQ-69" value="gender" style="text;strokeColor=none;fillColor=none;spacingLeft=4;spacingRight=4;overflow=hidden;rotatable=0;points=[[0,0.5],[1,0.5]];portConstraint=eastwest;fontSize=12;whiteSpace=wrap;html=1;" parent="o_qiAfEK-X4W-5gXMjXQ-65" vertex="1">
          <mxGeometry y="110" width="130" height="30" as="geometry" />
        </mxCell>
        <mxCell id="o_qiAfEK-X4W-5gXMjXQ-70" value="age" style="text;strokeColor=none;fillColor=none;spacingLeft=4;spacingRight=4;overflow=hidden;rotatable=0;points=[[0,0.5],[1,0.5]];portConstraint=eastwest;fontSize=12;whiteSpace=wrap;html=1;" parent="o_qiAfEK-X4W-5gXMjXQ-65" vertex="1">
          <mxGeometry y="140" width="130" height="30" as="geometry" />
        </mxCell>
        <mxCell id="o_qiAfEK-X4W-5gXMjXQ-71" value="phoneno" style="text;strokeColor=none;fillColor=none;spacingLeft=4;spacingRight=4;overflow=hidden;rotatable=0;points=[[0,0.5],[1,0.5]];portConstraint=eastwest;fontSize=12;whiteSpace=wrap;html=1;" parent="o_qiAfEK-X4W-5gXMjXQ-65" vertex="1">
          <mxGeometry y="170" width="130" height="30" as="geometry" />
        </mxCell>
        <mxCell id="o_qiAfEK-X4W-5gXMjXQ-72" value="email" style="text;strokeColor=none;fillColor=none;spacingLeft=4;spacingRight=4;overflow=hidden;rotatable=0;points=[[0,0.5],[1,0.5]];portConstraint=eastwest;fontSize=12;whiteSpace=wrap;html=1;" parent="o_qiAfEK-X4W-5gXMjXQ-65" vertex="1">
          <mxGeometry y="200" width="130" height="30" as="geometry" />
        </mxCell>
        <mxCell id="o_qiAfEK-X4W-5gXMjXQ-73" value="DOB" style="text;strokeColor=none;fillColor=none;spacingLeft=4;spacingRight=4;overflow=hidden;rotatable=0;points=[[0,0.5],[1,0.5]];portConstraint=eastwest;fontSize=12;whiteSpace=wrap;html=1;" parent="o_qiAfEK-X4W-5gXMjXQ-65" vertex="1">
          <mxGeometry y="230" width="130" height="30" as="geometry" />
        </mxCell>
        <mxCell id="o_qiAfEK-X4W-5gXMjXQ-74" value="occupations" style="text;strokeColor=none;fillColor=none;spacingLeft=4;spacingRight=4;overflow=hidden;rotatable=0;points=[[0,0.5],[1,0.5]];portConstraint=eastwest;fontSize=12;whiteSpace=wrap;html=1;" parent="o_qiAfEK-X4W-5gXMjXQ-65" vertex="1">
          <mxGeometry y="260" width="130" height="30" as="geometry" />
        </mxCell>
        <mxCell id="o_qiAfEK-X4W-5gXMjXQ-86" value="education" style="text;strokeColor=none;fillColor=none;spacingLeft=4;spacingRight=4;overflow=hidden;rotatable=0;points=[[0,0.5],[1,0.5]];portConstraint=eastwest;fontSize=12;whiteSpace=wrap;html=1;" parent="o_qiAfEK-X4W-5gXMjXQ-65" vertex="1">
          <mxGeometry y="290" width="130" height="30" as="geometry" />
        </mxCell>
        <mxCell id="o_qiAfEK-X4W-5gXMjXQ-87" value="adhaar" style="text;strokeColor=none;fillColor=none;spacingLeft=4;spacingRight=4;overflow=hidden;rotatable=0;points=[[0,0.5],[1,0.5]];portConstraint=eastwest;fontSize=12;whiteSpace=wrap;html=1;" parent="o_qiAfEK-X4W-5gXMjXQ-65" vertex="1">
          <mxGeometry y="320" width="130" height="30" as="geometry" />
        </mxCell>
        <mxCell id="o_qiAfEK-X4W-5gXMjXQ-88" value="Emp.ID" style="text;strokeColor=none;fillColor=none;spacingLeft=4;spacingRight=4;overflow=hidden;rotatable=0;points=[[0,0.5],[1,0.5]];portConstraint=eastwest;fontSize=12;whiteSpace=wrap;html=1;" parent="o_qiAfEK-X4W-5gXMjXQ-65" vertex="1">
          <mxGeometry y="350" width="130" height="30" as="geometry" />
        </mxCell>
        <mxCell id="o_qiAfEK-X4W-5gXMjXQ-75" value="System_company_Details" style="swimlane;fontStyle=0;childLayout=stackLayout;horizontal=1;startSize=30;horizontalStack=0;resizeParent=1;resizeParentMax=0;resizeLast=0;collapsible=1;marginBottom=0;align=center;fontSize=14;" parent="1" vertex="1">
          <mxGeometry x="-280" y="220" width="190" height="624" as="geometry" />
        </mxCell>
        <mxCell id="o_qiAfEK-X4W-5gXMjXQ-78" value="company_id" style="text;strokeColor=none;fillColor=none;spacingLeft=4;spacingRight=4;overflow=hidden;rotatable=0;points=[[0,0.5],[1,0.5]];portConstraint=eastwest;fontSize=12;whiteSpace=wrap;html=1;" parent="o_qiAfEK-X4W-5gXMjXQ-75" vertex="1">
          <mxGeometry y="30" width="190" height="30" as="geometry" />
        </mxCell>
        <mxCell id="o_qiAfEK-X4W-5gXMjXQ-76" value="name&lt;br&gt;&lt;br&gt;" style="text;strokeColor=none;fillColor=none;spacingLeft=4;spacingRight=4;overflow=hidden;rotatable=0;points=[[0,0.5],[1,0.5]];portConstraint=eastwest;fontSize=12;whiteSpace=wrap;html=1;" parent="o_qiAfEK-X4W-5gXMjXQ-75" vertex="1">
          <mxGeometry y="60" width="190" height="30" as="geometry" />
        </mxCell>
        <mxCell id="o_qiAfEK-X4W-5gXMjXQ-77" value="alias" style="text;strokeColor=none;fillColor=none;spacingLeft=4;spacingRight=4;overflow=hidden;rotatable=0;points=[[0,0.5],[1,0.5]];portConstraint=eastwest;fontSize=12;whiteSpace=wrap;html=1;" parent="o_qiAfEK-X4W-5gXMjXQ-75" vertex="1">
          <mxGeometry y="90" width="190" height="24" as="geometry" />
        </mxCell>
        <mxCell id="o_qiAfEK-X4W-5gXMjXQ-79" value="company_type" style="text;strokeColor=none;fillColor=none;spacingLeft=4;spacingRight=4;overflow=hidden;rotatable=0;points=[[0,0.5],[1,0.5]];portConstraint=eastwest;fontSize=12;whiteSpace=wrap;html=1;" parent="o_qiAfEK-X4W-5gXMjXQ-75" vertex="1">
          <mxGeometry y="114" width="190" height="30" as="geometry" />
        </mxCell>
        <mxCell id="o_qiAfEK-X4W-5gXMjXQ-80" value="company_size" style="text;strokeColor=none;fillColor=none;spacingLeft=4;spacingRight=4;overflow=hidden;rotatable=0;points=[[0,0.5],[1,0.5]];portConstraint=eastwest;fontSize=12;whiteSpace=wrap;html=1;" parent="o_qiAfEK-X4W-5gXMjXQ-75" vertex="1">
          <mxGeometry y="144" width="190" height="30" as="geometry" />
        </mxCell>
        <mxCell id="o_qiAfEK-X4W-5gXMjXQ-81" value="incorporation_no" style="text;strokeColor=none;fillColor=none;spacingLeft=4;spacingRight=4;overflow=hidden;rotatable=0;points=[[0,0.5],[1,0.5]];portConstraint=eastwest;fontSize=12;whiteSpace=wrap;html=1;" parent="o_qiAfEK-X4W-5gXMjXQ-75" vertex="1">
          <mxGeometry y="174" width="190" height="30" as="geometry" />
        </mxCell>
        <mxCell id="o_qiAfEK-X4W-5gXMjXQ-82" value="incorporation_agency" style="text;strokeColor=none;fillColor=none;spacingLeft=4;spacingRight=4;overflow=hidden;rotatable=0;points=[[0,0.5],[1,0.5]];portConstraint=eastwest;fontSize=12;whiteSpace=wrap;html=1;" parent="o_qiAfEK-X4W-5gXMjXQ-75" vertex="1">
          <mxGeometry y="204" width="190" height="30" as="geometry" />
        </mxCell>
        <mxCell id="o_qiAfEK-X4W-5gXMjXQ-83" value="date" style="text;strokeColor=none;fillColor=none;spacingLeft=4;spacingRight=4;overflow=hidden;rotatable=0;points=[[0,0.5],[1,0.5]];portConstraint=eastwest;fontSize=12;whiteSpace=wrap;html=1;" parent="o_qiAfEK-X4W-5gXMjXQ-75" vertex="1">
          <mxGeometry y="234" width="190" height="30" as="geometry" />
        </mxCell>
        <mxCell id="o_qiAfEK-X4W-5gXMjXQ-84" value="certificate" style="text;strokeColor=none;fillColor=none;spacingLeft=4;spacingRight=4;overflow=hidden;rotatable=0;points=[[0,0.5],[1,0.5]];portConstraint=eastwest;fontSize=12;whiteSpace=wrap;html=1;" parent="o_qiAfEK-X4W-5gXMjXQ-75" vertex="1">
          <mxGeometry y="264" width="190" height="30" as="geometry" />
        </mxCell>
        <mxCell id="o_qiAfEK-X4W-5gXMjXQ-179" value="Tax_certificate_details" style="text;strokeColor=none;fillColor=none;spacingLeft=4;spacingRight=4;overflow=hidden;rotatable=0;points=[[0,0.5],[1,0.5]];portConstraint=eastwest;fontSize=12;whiteSpace=wrap;html=1;" parent="o_qiAfEK-X4W-5gXMjXQ-75" vertex="1">
          <mxGeometry y="294" width="190" height="30" as="geometry" />
        </mxCell>
        <mxCell id="o_qiAfEK-X4W-5gXMjXQ-180" value="PAN" style="text;strokeColor=none;fillColor=none;spacingLeft=4;spacingRight=4;overflow=hidden;rotatable=0;points=[[0,0.5],[1,0.5]];portConstraint=eastwest;fontSize=12;whiteSpace=wrap;html=1;" parent="o_qiAfEK-X4W-5gXMjXQ-75" vertex="1">
          <mxGeometry y="324" width="190" height="30" as="geometry" />
        </mxCell>
        <mxCell id="o_qiAfEK-X4W-5gXMjXQ-181" value="country" style="text;strokeColor=none;fillColor=none;spacingLeft=4;spacingRight=4;overflow=hidden;rotatable=0;points=[[0,0.5],[1,0.5]];portConstraint=eastwest;fontSize=12;whiteSpace=wrap;html=1;" parent="o_qiAfEK-X4W-5gXMjXQ-75" vertex="1">
          <mxGeometry y="354" width="190" height="30" as="geometry" />
        </mxCell>
        <mxCell id="o_qiAfEK-X4W-5gXMjXQ-182" value="state" style="text;strokeColor=none;fillColor=none;spacingLeft=4;spacingRight=4;overflow=hidden;rotatable=0;points=[[0,0.5],[1,0.5]];portConstraint=eastwest;fontSize=12;whiteSpace=wrap;html=1;" parent="o_qiAfEK-X4W-5gXMjXQ-75" vertex="1">
          <mxGeometry y="384" width="190" height="30" as="geometry" />
        </mxCell>
        <mxCell id="o_qiAfEK-X4W-5gXMjXQ-183" value="city" style="text;strokeColor=none;fillColor=none;spacingLeft=4;spacingRight=4;overflow=hidden;rotatable=0;points=[[0,0.5],[1,0.5]];portConstraint=eastwest;fontSize=12;whiteSpace=wrap;html=1;" parent="o_qiAfEK-X4W-5gXMjXQ-75" vertex="1">
          <mxGeometry y="414" width="190" height="30" as="geometry" />
        </mxCell>
        <mxCell id="o_qiAfEK-X4W-5gXMjXQ-184" value="pin" style="text;strokeColor=none;fillColor=none;spacingLeft=4;spacingRight=4;overflow=hidden;rotatable=0;points=[[0,0.5],[1,0.5]];portConstraint=eastwest;fontSize=12;whiteSpace=wrap;html=1;" parent="o_qiAfEK-X4W-5gXMjXQ-75" vertex="1">
          <mxGeometry y="444" width="190" height="30" as="geometry" />
        </mxCell>
        <mxCell id="o_qiAfEK-X4W-5gXMjXQ-185" value="address" style="text;strokeColor=none;fillColor=none;spacingLeft=4;spacingRight=4;overflow=hidden;rotatable=0;points=[[0,0.5],[1,0.5]];portConstraint=eastwest;fontSize=12;whiteSpace=wrap;html=1;" parent="o_qiAfEK-X4W-5gXMjXQ-75" vertex="1">
          <mxGeometry y="474" width="190" height="30" as="geometry" />
        </mxCell>
        <mxCell id="o_qiAfEK-X4W-5gXMjXQ-186" value="registered_office_details" style="text;strokeColor=none;fillColor=none;spacingLeft=4;spacingRight=4;overflow=hidden;rotatable=0;points=[[0,0.5],[1,0.5]];portConstraint=eastwest;fontSize=12;whiteSpace=wrap;html=1;" parent="o_qiAfEK-X4W-5gXMjXQ-75" vertex="1">
          <mxGeometry y="504" width="190" height="30" as="geometry" />
        </mxCell>
        <mxCell id="o_qiAfEK-X4W-5gXMjXQ-187" value="email" style="text;strokeColor=none;fillColor=none;spacingLeft=4;spacingRight=4;overflow=hidden;rotatable=0;points=[[0,0.5],[1,0.5]];portConstraint=eastwest;fontSize=12;whiteSpace=wrap;html=1;" parent="o_qiAfEK-X4W-5gXMjXQ-75" vertex="1">
          <mxGeometry y="534" width="190" height="30" as="geometry" />
        </mxCell>
        <mxCell id="o_qiAfEK-X4W-5gXMjXQ-188" value="phoneno" style="text;strokeColor=none;fillColor=none;spacingLeft=4;spacingRight=4;overflow=hidden;rotatable=0;points=[[0,0.5],[1,0.5]];portConstraint=eastwest;fontSize=12;whiteSpace=wrap;html=1;" parent="o_qiAfEK-X4W-5gXMjXQ-75" vertex="1">
          <mxGeometry y="564" width="190" height="30" as="geometry" />
        </mxCell>
        <mxCell id="o_qiAfEK-X4W-5gXMjXQ-189" value="whatsappno" style="text;strokeColor=none;fillColor=none;spacingLeft=4;spacingRight=4;overflow=hidden;rotatable=0;points=[[0,0.5],[1,0.5]];portConstraint=eastwest;fontSize=12;whiteSpace=wrap;html=1;" parent="o_qiAfEK-X4W-5gXMjXQ-75" vertex="1">
          <mxGeometry y="594" width="190" height="30" as="geometry" />
        </mxCell>
        <mxCell id="o_qiAfEK-X4W-5gXMjXQ-91" value="Training" style="swimlane;fontStyle=0;childLayout=stackLayout;horizontal=1;startSize=26;horizontalStack=0;resizeParent=1;resizeParentMax=0;resizeLast=0;collapsible=1;marginBottom=0;align=center;fontSize=14;" parent="1" vertex="1">
          <mxGeometry x="710" y="-270" width="130" height="200" as="geometry" />
        </mxCell>
        <mxCell id="o_qiAfEK-X4W-5gXMjXQ-92" value="course" style="text;strokeColor=none;fillColor=none;spacingLeft=4;spacingRight=4;overflow=hidden;rotatable=0;points=[[0,0.5],[1,0.5]];portConstraint=eastwest;fontSize=12;whiteSpace=wrap;html=1;" parent="o_qiAfEK-X4W-5gXMjXQ-91" vertex="1">
          <mxGeometry y="26" width="130" height="30" as="geometry" />
        </mxCell>
        <mxCell id="o_qiAfEK-X4W-5gXMjXQ-93" value="board_name" style="text;strokeColor=none;fillColor=none;spacingLeft=4;spacingRight=4;overflow=hidden;rotatable=0;points=[[0,0.5],[1,0.5]];portConstraint=eastwest;fontSize=12;whiteSpace=wrap;html=1;" parent="o_qiAfEK-X4W-5gXMjXQ-91" vertex="1">
          <mxGeometry y="56" width="130" height="24" as="geometry" />
        </mxCell>
        <mxCell id="o_qiAfEK-X4W-5gXMjXQ-94" value="years" style="text;strokeColor=none;fillColor=none;spacingLeft=4;spacingRight=4;overflow=hidden;rotatable=0;points=[[0,0.5],[1,0.5]];portConstraint=eastwest;fontSize=12;whiteSpace=wrap;html=1;" parent="o_qiAfEK-X4W-5gXMjXQ-91" vertex="1">
          <mxGeometry y="80" width="130" height="30" as="geometry" />
        </mxCell>
        <mxCell id="o_qiAfEK-X4W-5gXMjXQ-95" value="cerificate_No" style="text;strokeColor=none;fillColor=none;spacingLeft=4;spacingRight=4;overflow=hidden;rotatable=0;points=[[0,0.5],[1,0.5]];portConstraint=eastwest;fontSize=12;whiteSpace=wrap;html=1;" parent="o_qiAfEK-X4W-5gXMjXQ-91" vertex="1">
          <mxGeometry y="110" width="130" height="30" as="geometry" />
        </mxCell>
        <mxCell id="o_qiAfEK-X4W-5gXMjXQ-96" value="skill_set" style="text;strokeColor=none;fillColor=none;spacingLeft=4;spacingRight=4;overflow=hidden;rotatable=0;points=[[0,0.5],[1,0.5]];portConstraint=eastwest;fontSize=12;whiteSpace=wrap;html=1;" parent="o_qiAfEK-X4W-5gXMjXQ-91" vertex="1">
          <mxGeometry y="140" width="130" height="30" as="geometry" />
        </mxCell>
        <mxCell id="o_qiAfEK-X4W-5gXMjXQ-102" value="Emp.ID" style="text;strokeColor=none;fillColor=none;spacingLeft=4;spacingRight=4;overflow=hidden;rotatable=0;points=[[0,0.5],[1,0.5]];portConstraint=eastwest;fontSize=12;whiteSpace=wrap;html=1;" parent="o_qiAfEK-X4W-5gXMjXQ-91" vertex="1">
          <mxGeometry y="170" width="130" height="30" as="geometry" />
        </mxCell>
        <mxCell id="o_qiAfEK-X4W-5gXMjXQ-103" value="experience" style="swimlane;fontStyle=0;childLayout=stackLayout;horizontal=1;startSize=26;horizontalStack=0;resizeParent=1;resizeParentMax=0;resizeLast=0;collapsible=1;marginBottom=0;align=center;fontSize=14;" parent="1" vertex="1">
          <mxGeometry x="870" y="-270" width="130" height="320" as="geometry" />
        </mxCell>
        <mxCell id="o_qiAfEK-X4W-5gXMjXQ-104" value="organisation_name" style="text;strokeColor=none;fillColor=none;spacingLeft=4;spacingRight=4;overflow=hidden;rotatable=0;points=[[0,0.5],[1,0.5]];portConstraint=eastwest;fontSize=12;whiteSpace=wrap;html=1;" parent="o_qiAfEK-X4W-5gXMjXQ-103" vertex="1">
          <mxGeometry y="26" width="130" height="30" as="geometry" />
        </mxCell>
        <mxCell id="o_qiAfEK-X4W-5gXMjXQ-105" value="branch_name" style="text;strokeColor=none;fillColor=none;spacingLeft=4;spacingRight=4;overflow=hidden;rotatable=0;points=[[0,0.5],[1,0.5]];portConstraint=eastwest;fontSize=12;whiteSpace=wrap;html=1;" parent="o_qiAfEK-X4W-5gXMjXQ-103" vertex="1">
          <mxGeometry y="56" width="130" height="24" as="geometry" />
        </mxCell>
        <mxCell id="o_qiAfEK-X4W-5gXMjXQ-106" value="years" style="text;strokeColor=none;fillColor=none;spacingLeft=4;spacingRight=4;overflow=hidden;rotatable=0;points=[[0,0.5],[1,0.5]];portConstraint=eastwest;fontSize=12;whiteSpace=wrap;html=1;" parent="o_qiAfEK-X4W-5gXMjXQ-103" vertex="1">
          <mxGeometry y="80" width="130" height="30" as="geometry" />
        </mxCell>
        <mxCell id="o_qiAfEK-X4W-5gXMjXQ-107" value="designation" style="text;strokeColor=none;fillColor=none;spacingLeft=4;spacingRight=4;overflow=hidden;rotatable=0;points=[[0,0.5],[1,0.5]];portConstraint=eastwest;fontSize=12;whiteSpace=wrap;html=1;" parent="o_qiAfEK-X4W-5gXMjXQ-103" vertex="1">
          <mxGeometry y="110" width="130" height="30" as="geometry" />
        </mxCell>
        <mxCell id="o_qiAfEK-X4W-5gXMjXQ-108" value="joining_letter" style="text;strokeColor=none;fillColor=none;spacingLeft=4;spacingRight=4;overflow=hidden;rotatable=0;points=[[0,0.5],[1,0.5]];portConstraint=eastwest;fontSize=12;whiteSpace=wrap;html=1;" parent="o_qiAfEK-X4W-5gXMjXQ-103" vertex="1">
          <mxGeometry y="140" width="130" height="30" as="geometry" />
        </mxCell>
        <mxCell id="o_qiAfEK-X4W-5gXMjXQ-110" value="experience_letter" style="text;strokeColor=none;fillColor=none;spacingLeft=4;spacingRight=4;overflow=hidden;rotatable=0;points=[[0,0.5],[1,0.5]];portConstraint=eastwest;fontSize=12;whiteSpace=wrap;html=1;" parent="o_qiAfEK-X4W-5gXMjXQ-103" vertex="1">
          <mxGeometry y="170" width="130" height="30" as="geometry" />
        </mxCell>
        <mxCell id="o_qiAfEK-X4W-5gXMjXQ-111" value="reporting_person" style="text;strokeColor=none;fillColor=none;spacingLeft=4;spacingRight=4;overflow=hidden;rotatable=0;points=[[0,0.5],[1,0.5]];portConstraint=eastwest;fontSize=12;whiteSpace=wrap;html=1;" parent="o_qiAfEK-X4W-5gXMjXQ-103" vertex="1">
          <mxGeometry y="200" width="130" height="30" as="geometry" />
        </mxCell>
        <mxCell id="o_qiAfEK-X4W-5gXMjXQ-112" value="reporting_contact_no" style="text;strokeColor=none;fillColor=none;spacingLeft=4;spacingRight=4;overflow=hidden;rotatable=0;points=[[0,0.5],[1,0.5]];portConstraint=eastwest;fontSize=12;whiteSpace=wrap;html=1;" parent="o_qiAfEK-X4W-5gXMjXQ-103" vertex="1">
          <mxGeometry y="230" width="130" height="30" as="geometry" />
        </mxCell>
        <mxCell id="o_qiAfEK-X4W-5gXMjXQ-113" value="reason_living" style="text;strokeColor=none;fillColor=none;spacingLeft=4;spacingRight=4;overflow=hidden;rotatable=0;points=[[0,0.5],[1,0.5]];portConstraint=eastwest;fontSize=12;whiteSpace=wrap;html=1;" parent="o_qiAfEK-X4W-5gXMjXQ-103" vertex="1">
          <mxGeometry y="260" width="130" height="30" as="geometry" />
        </mxCell>
        <mxCell id="o_qiAfEK-X4W-5gXMjXQ-109" value="Emp.ID" style="text;strokeColor=none;fillColor=none;spacingLeft=4;spacingRight=4;overflow=hidden;rotatable=0;points=[[0,0.5],[1,0.5]];portConstraint=eastwest;fontSize=12;whiteSpace=wrap;html=1;" parent="o_qiAfEK-X4W-5gXMjXQ-103" vertex="1">
          <mxGeometry y="290" width="130" height="30" as="geometry" />
        </mxCell>
        <mxCell id="o_qiAfEK-X4W-5gXMjXQ-114" value="Skill_level" style="swimlane;fontStyle=0;childLayout=stackLayout;horizontal=1;startSize=26;horizontalStack=0;resizeParent=1;resizeParentMax=0;resizeLast=0;collapsible=1;marginBottom=0;align=center;fontSize=14;" parent="1" vertex="1">
          <mxGeometry x="1040" y="-270" width="130" height="86" as="geometry" />
        </mxCell>
        <mxCell id="o_qiAfEK-X4W-5gXMjXQ-124" value="skill_level" style="text;strokeColor=none;fillColor=none;spacingLeft=4;spacingRight=4;overflow=hidden;rotatable=0;points=[[0,0.5],[1,0.5]];portConstraint=eastwest;fontSize=12;whiteSpace=wrap;html=1;" parent="o_qiAfEK-X4W-5gXMjXQ-114" vertex="1">
          <mxGeometry y="26" width="130" height="30" as="geometry" />
        </mxCell>
        <mxCell id="o_qiAfEK-X4W-5gXMjXQ-125" value="Emp.ID" style="text;strokeColor=none;fillColor=none;spacingLeft=4;spacingRight=4;overflow=hidden;rotatable=0;points=[[0,0.5],[1,0.5]];portConstraint=eastwest;fontSize=12;whiteSpace=wrap;html=1;" parent="o_qiAfEK-X4W-5gXMjXQ-114" vertex="1">
          <mxGeometry y="56" width="130" height="30" as="geometry" />
        </mxCell>
        <mxCell id="o_qiAfEK-X4W-5gXMjXQ-190" value="System_brand_Details" style="swimlane;fontStyle=0;childLayout=stackLayout;horizontal=1;startSize=30;horizontalStack=0;resizeParent=1;resizeParentMax=0;resizeLast=0;collapsible=1;marginBottom=0;align=center;fontSize=14;" parent="1" vertex="1">
          <mxGeometry x="-50" y="220" width="190" height="174" as="geometry" />
        </mxCell>
        <mxCell id="o_qiAfEK-X4W-5gXMjXQ-191" value="brand_logo" style="text;strokeColor=none;fillColor=none;spacingLeft=4;spacingRight=4;overflow=hidden;rotatable=0;points=[[0,0.5],[1,0.5]];portConstraint=eastwest;fontSize=12;whiteSpace=wrap;html=1;" parent="o_qiAfEK-X4W-5gXMjXQ-190" vertex="1">
          <mxGeometry y="30" width="190" height="30" as="geometry" />
        </mxCell>
        <mxCell id="o_qiAfEK-X4W-5gXMjXQ-192" value="favicon" style="text;strokeColor=none;fillColor=none;spacingLeft=4;spacingRight=4;overflow=hidden;rotatable=0;points=[[0,0.5],[1,0.5]];portConstraint=eastwest;fontSize=12;whiteSpace=wrap;html=1;" parent="o_qiAfEK-X4W-5gXMjXQ-190" vertex="1">
          <mxGeometry y="60" width="190" height="24" as="geometry" />
        </mxCell>
        <mxCell id="o_qiAfEK-X4W-5gXMjXQ-193" value="letter_header" style="text;strokeColor=none;fillColor=none;spacingLeft=4;spacingRight=4;overflow=hidden;rotatable=0;points=[[0,0.5],[1,0.5]];portConstraint=eastwest;fontSize=12;whiteSpace=wrap;html=1;" parent="o_qiAfEK-X4W-5gXMjXQ-190" vertex="1">
          <mxGeometry y="84" width="190" height="30" as="geometry" />
        </mxCell>
        <mxCell id="o_qiAfEK-X4W-5gXMjXQ-194" value="letter_footer" style="text;strokeColor=none;fillColor=none;spacingLeft=4;spacingRight=4;overflow=hidden;rotatable=0;points=[[0,0.5],[1,0.5]];portConstraint=eastwest;fontSize=12;whiteSpace=wrap;html=1;" parent="o_qiAfEK-X4W-5gXMjXQ-190" vertex="1">
          <mxGeometry y="114" width="190" height="30" as="geometry" />
        </mxCell>
        <mxCell id="o_qiAfEK-X4W-5gXMjXQ-212" value="company_id" style="text;strokeColor=none;fillColor=none;spacingLeft=4;spacingRight=4;overflow=hidden;rotatable=0;points=[[0,0.5],[1,0.5]];portConstraint=eastwest;fontSize=12;whiteSpace=wrap;html=1;" parent="o_qiAfEK-X4W-5gXMjXQ-190" vertex="1">
          <mxGeometry y="144" width="190" height="30" as="geometry" />
        </mxCell>
        <mxCell id="o_qiAfEK-X4W-5gXMjXQ-213" value="System_business_Details" style="swimlane;fontStyle=0;childLayout=stackLayout;horizontal=1;startSize=30;horizontalStack=0;resizeParent=1;resizeParentMax=0;resizeLast=0;collapsible=1;marginBottom=0;align=center;fontSize=14;" parent="1" vertex="1">
          <mxGeometry x="190" y="220" width="190" height="90" as="geometry" />
        </mxCell>
        <mxCell id="o_qiAfEK-X4W-5gXMjXQ-214" value="address" style="text;strokeColor=none;fillColor=none;spacingLeft=4;spacingRight=4;overflow=hidden;rotatable=0;points=[[0,0.5],[1,0.5]];portConstraint=eastwest;fontSize=12;whiteSpace=wrap;html=1;" parent="o_qiAfEK-X4W-5gXMjXQ-213" vertex="1">
          <mxGeometry y="30" width="190" height="30" as="geometry" />
        </mxCell>
        <mxCell id="o_qiAfEK-X4W-5gXMjXQ-218" value="company_id" style="text;strokeColor=none;fillColor=none;spacingLeft=4;spacingRight=4;overflow=hidden;rotatable=0;points=[[0,0.5],[1,0.5]];portConstraint=eastwest;fontSize=12;whiteSpace=wrap;html=1;" parent="o_qiAfEK-X4W-5gXMjXQ-213" vertex="1">
          <mxGeometry y="60" width="190" height="30" as="geometry" />
        </mxCell>
        <mxCell id="o_qiAfEK-X4W-5gXMjXQ-219" value="System_contact_Details" style="swimlane;fontStyle=0;childLayout=stackLayout;horizontal=1;startSize=30;horizontalStack=0;resizeParent=1;resizeParentMax=0;resizeLast=0;collapsible=1;marginBottom=0;align=center;fontSize=14;" parent="1" vertex="1">
          <mxGeometry x="425" y="220" width="190" height="240" as="geometry" />
        </mxCell>
        <mxCell id="o_qiAfEK-X4W-5gXMjXQ-220" value="name" style="text;strokeColor=none;fillColor=none;spacingLeft=4;spacingRight=4;overflow=hidden;rotatable=0;points=[[0,0.5],[1,0.5]];portConstraint=eastwest;fontSize=12;whiteSpace=wrap;html=1;" parent="o_qiAfEK-X4W-5gXMjXQ-219" vertex="1">
          <mxGeometry y="30" width="190" height="30" as="geometry" />
        </mxCell>
        <mxCell id="o_qiAfEK-X4W-5gXMjXQ-221" value="designation" style="text;strokeColor=none;fillColor=none;spacingLeft=4;spacingRight=4;overflow=hidden;rotatable=0;points=[[0,0.5],[1,0.5]];portConstraint=eastwest;fontSize=12;whiteSpace=wrap;html=1;" parent="o_qiAfEK-X4W-5gXMjXQ-219" vertex="1">
          <mxGeometry y="60" width="190" height="30" as="geometry" />
        </mxCell>
        <mxCell id="o_qiAfEK-X4W-5gXMjXQ-222" value="role" style="text;strokeColor=none;fillColor=none;spacingLeft=4;spacingRight=4;overflow=hidden;rotatable=0;points=[[0,0.5],[1,0.5]];portConstraint=eastwest;fontSize=12;whiteSpace=wrap;html=1;" parent="o_qiAfEK-X4W-5gXMjXQ-219" vertex="1">
          <mxGeometry y="90" width="190" height="30" as="geometry" />
        </mxCell>
        <mxCell id="o_qiAfEK-X4W-5gXMjXQ-223" value="email" style="text;strokeColor=none;fillColor=none;spacingLeft=4;spacingRight=4;overflow=hidden;rotatable=0;points=[[0,0.5],[1,0.5]];portConstraint=eastwest;fontSize=12;whiteSpace=wrap;html=1;" parent="o_qiAfEK-X4W-5gXMjXQ-219" vertex="1">
          <mxGeometry y="120" width="190" height="30" as="geometry" />
        </mxCell>
        <mxCell id="o_qiAfEK-X4W-5gXMjXQ-224" value="phone" style="text;strokeColor=none;fillColor=none;spacingLeft=4;spacingRight=4;overflow=hidden;rotatable=0;points=[[0,0.5],[1,0.5]];portConstraint=eastwest;fontSize=12;whiteSpace=wrap;html=1;" parent="o_qiAfEK-X4W-5gXMjXQ-219" vertex="1">
          <mxGeometry y="150" width="190" height="30" as="geometry" />
        </mxCell>
        <mxCell id="o_qiAfEK-X4W-5gXMjXQ-225" value="whatsapp" style="text;strokeColor=none;fillColor=none;spacingLeft=4;spacingRight=4;overflow=hidden;rotatable=0;points=[[0,0.5],[1,0.5]];portConstraint=eastwest;fontSize=12;whiteSpace=wrap;html=1;" parent="o_qiAfEK-X4W-5gXMjXQ-219" vertex="1">
          <mxGeometry y="180" width="190" height="30" as="geometry" />
        </mxCell>
        <mxCell id="o_qiAfEK-X4W-5gXMjXQ-226" value="company_id" style="text;strokeColor=none;fillColor=none;spacingLeft=4;spacingRight=4;overflow=hidden;rotatable=0;points=[[0,0.5],[1,0.5]];portConstraint=eastwest;fontSize=12;whiteSpace=wrap;html=1;" parent="o_qiAfEK-X4W-5gXMjXQ-219" vertex="1">
          <mxGeometry y="210" width="190" height="30" as="geometry" />
        </mxCell>
        <mxCell id="o_qiAfEK-X4W-5gXMjXQ-227" value="System_social_Details" style="swimlane;fontStyle=0;childLayout=stackLayout;horizontal=1;startSize=30;horizontalStack=0;resizeParent=1;resizeParentMax=0;resizeLast=0;collapsible=1;marginBottom=0;align=center;fontSize=14;" parent="1" vertex="1">
          <mxGeometry x="660" y="220" width="190" height="150" as="geometry" />
        </mxCell>
        <mxCell id="o_qiAfEK-X4W-5gXMjXQ-228" value="name" style="text;strokeColor=none;fillColor=none;spacingLeft=4;spacingRight=4;overflow=hidden;rotatable=0;points=[[0,0.5],[1,0.5]];portConstraint=eastwest;fontSize=12;whiteSpace=wrap;html=1;" parent="o_qiAfEK-X4W-5gXMjXQ-227" vertex="1">
          <mxGeometry y="30" width="190" height="30" as="geometry" />
        </mxCell>
        <mxCell id="o_qiAfEK-X4W-5gXMjXQ-229" value="URL" style="text;strokeColor=none;fillColor=none;spacingLeft=4;spacingRight=4;overflow=hidden;rotatable=0;points=[[0,0.5],[1,0.5]];portConstraint=eastwest;fontSize=12;whiteSpace=wrap;html=1;" parent="o_qiAfEK-X4W-5gXMjXQ-227" vertex="1">
          <mxGeometry y="60" width="190" height="30" as="geometry" />
        </mxCell>
        <mxCell id="o_qiAfEK-X4W-5gXMjXQ-230" value="icon" style="text;strokeColor=none;fillColor=none;spacingLeft=4;spacingRight=4;overflow=hidden;rotatable=0;points=[[0,0.5],[1,0.5]];portConstraint=eastwest;fontSize=12;whiteSpace=wrap;html=1;" parent="o_qiAfEK-X4W-5gXMjXQ-227" vertex="1">
          <mxGeometry y="90" width="190" height="30" as="geometry" />
        </mxCell>
        <mxCell id="o_qiAfEK-X4W-5gXMjXQ-234" value="company_id" style="text;strokeColor=none;fillColor=none;spacingLeft=4;spacingRight=4;overflow=hidden;rotatable=0;points=[[0,0.5],[1,0.5]];portConstraint=eastwest;fontSize=12;whiteSpace=wrap;html=1;" parent="o_qiAfEK-X4W-5gXMjXQ-227" vertex="1">
          <mxGeometry y="120" width="190" height="30" as="geometry" />
        </mxCell>
        <mxCell id="o_qiAfEK-X4W-5gXMjXQ-235" value="System_other_Details" style="swimlane;fontStyle=0;childLayout=stackLayout;horizontal=1;startSize=30;horizontalStack=0;resizeParent=1;resizeParentMax=0;resizeLast=0;collapsible=1;marginBottom=0;align=center;fontSize=14;" parent="1" vertex="1">
          <mxGeometry x="900" y="220" width="190" height="120" as="geometry" />
        </mxCell>
        <mxCell id="o_qiAfEK-X4W-5gXMjXQ-236" value="name" style="text;strokeColor=none;fillColor=none;spacingLeft=4;spacingRight=4;overflow=hidden;rotatable=0;points=[[0,0.5],[1,0.5]];portConstraint=eastwest;fontSize=12;whiteSpace=wrap;html=1;" parent="o_qiAfEK-X4W-5gXMjXQ-235" vertex="1">
          <mxGeometry y="30" width="190" height="30" as="geometry" />
        </mxCell>
        <mxCell id="o_qiAfEK-X4W-5gXMjXQ-237" value="details" style="text;strokeColor=none;fillColor=none;spacingLeft=4;spacingRight=4;overflow=hidden;rotatable=0;points=[[0,0.5],[1,0.5]];portConstraint=eastwest;fontSize=12;whiteSpace=wrap;html=1;" parent="o_qiAfEK-X4W-5gXMjXQ-235" vertex="1">
          <mxGeometry y="60" width="190" height="30" as="geometry" />
        </mxCell>
        <mxCell id="o_qiAfEK-X4W-5gXMjXQ-239" value="company_id" style="text;strokeColor=none;fillColor=none;spacingLeft=4;spacingRight=4;overflow=hidden;rotatable=0;points=[[0,0.5],[1,0.5]];portConstraint=eastwest;fontSize=12;whiteSpace=wrap;html=1;" parent="o_qiAfEK-X4W-5gXMjXQ-235" vertex="1">
          <mxGeometry y="90" width="190" height="30" as="geometry" />
        </mxCell>
        <mxCell id="o_qiAfEK-X4W-5gXMjXQ-240" value="System_branch_Details" style="swimlane;fontStyle=0;childLayout=stackLayout;horizontal=1;startSize=30;horizontalStack=0;resizeParent=1;resizeParentMax=0;resizeLast=0;collapsible=1;marginBottom=0;align=center;fontSize=14;" parent="1" vertex="1">
          <mxGeometry x="-280" y="950" width="190" height="654" as="geometry" />
        </mxCell>
        <mxCell id="o_qiAfEK-X4W-5gXMjXQ-241" value="name&lt;br&gt;&lt;br&gt;" style="text;strokeColor=none;fillColor=none;spacingLeft=4;spacingRight=4;overflow=hidden;rotatable=0;points=[[0,0.5],[1,0.5]];portConstraint=eastwest;fontSize=12;whiteSpace=wrap;html=1;" parent="o_qiAfEK-X4W-5gXMjXQ-240" vertex="1">
          <mxGeometry y="30" width="190" height="30" as="geometry" />
        </mxCell>
        <mxCell id="o_qiAfEK-X4W-5gXMjXQ-242" value="alias" style="text;strokeColor=none;fillColor=none;spacingLeft=4;spacingRight=4;overflow=hidden;rotatable=0;points=[[0,0.5],[1,0.5]];portConstraint=eastwest;fontSize=12;whiteSpace=wrap;html=1;" parent="o_qiAfEK-X4W-5gXMjXQ-240" vertex="1">
          <mxGeometry y="60" width="190" height="24" as="geometry" />
        </mxCell>
        <mxCell id="o_qiAfEK-X4W-5gXMjXQ-243" value="branch_id" style="text;strokeColor=none;fillColor=none;spacingLeft=4;spacingRight=4;overflow=hidden;rotatable=0;points=[[0,0.5],[1,0.5]];portConstraint=eastwest;fontSize=12;whiteSpace=wrap;html=1;" parent="o_qiAfEK-X4W-5gXMjXQ-240" vertex="1">
          <mxGeometry y="84" width="190" height="30" as="geometry" />
        </mxCell>
        <mxCell id="o_qiAfEK-X4W-5gXMjXQ-244" value="branch_type" style="text;strokeColor=none;fillColor=none;spacingLeft=4;spacingRight=4;overflow=hidden;rotatable=0;points=[[0,0.5],[1,0.5]];portConstraint=eastwest;fontSize=12;whiteSpace=wrap;html=1;" parent="o_qiAfEK-X4W-5gXMjXQ-240" vertex="1">
          <mxGeometry y="114" width="190" height="30" as="geometry" />
        </mxCell>
        <mxCell id="o_qiAfEK-X4W-5gXMjXQ-245" value="branch_size" style="text;strokeColor=none;fillColor=none;spacingLeft=4;spacingRight=4;overflow=hidden;rotatable=0;points=[[0,0.5],[1,0.5]];portConstraint=eastwest;fontSize=12;whiteSpace=wrap;html=1;" parent="o_qiAfEK-X4W-5gXMjXQ-240" vertex="1">
          <mxGeometry y="144" width="190" height="30" as="geometry" />
        </mxCell>
        <mxCell id="o_qiAfEK-X4W-5gXMjXQ-246" value="incorporation_no" style="text;strokeColor=none;fillColor=none;spacingLeft=4;spacingRight=4;overflow=hidden;rotatable=0;points=[[0,0.5],[1,0.5]];portConstraint=eastwest;fontSize=12;whiteSpace=wrap;html=1;" parent="o_qiAfEK-X4W-5gXMjXQ-240" vertex="1">
          <mxGeometry y="174" width="190" height="30" as="geometry" />
        </mxCell>
        <mxCell id="o_qiAfEK-X4W-5gXMjXQ-247" value="incorporation_agency" style="text;strokeColor=none;fillColor=none;spacingLeft=4;spacingRight=4;overflow=hidden;rotatable=0;points=[[0,0.5],[1,0.5]];portConstraint=eastwest;fontSize=12;whiteSpace=wrap;html=1;" parent="o_qiAfEK-X4W-5gXMjXQ-240" vertex="1">
          <mxGeometry y="204" width="190" height="30" as="geometry" />
        </mxCell>
        <mxCell id="o_qiAfEK-X4W-5gXMjXQ-248" value="date" style="text;strokeColor=none;fillColor=none;spacingLeft=4;spacingRight=4;overflow=hidden;rotatable=0;points=[[0,0.5],[1,0.5]];portConstraint=eastwest;fontSize=12;whiteSpace=wrap;html=1;" parent="o_qiAfEK-X4W-5gXMjXQ-240" vertex="1">
          <mxGeometry y="234" width="190" height="30" as="geometry" />
        </mxCell>
        <mxCell id="o_qiAfEK-X4W-5gXMjXQ-249" value="certificate" style="text;strokeColor=none;fillColor=none;spacingLeft=4;spacingRight=4;overflow=hidden;rotatable=0;points=[[0,0.5],[1,0.5]];portConstraint=eastwest;fontSize=12;whiteSpace=wrap;html=1;" parent="o_qiAfEK-X4W-5gXMjXQ-240" vertex="1">
          <mxGeometry y="264" width="190" height="30" as="geometry" />
        </mxCell>
        <mxCell id="o_qiAfEK-X4W-5gXMjXQ-250" value="Tax_certificate_details" style="text;strokeColor=none;fillColor=none;spacingLeft=4;spacingRight=4;overflow=hidden;rotatable=0;points=[[0,0.5],[1,0.5]];portConstraint=eastwest;fontSize=12;whiteSpace=wrap;html=1;" parent="o_qiAfEK-X4W-5gXMjXQ-240" vertex="1">
          <mxGeometry y="294" width="190" height="30" as="geometry" />
        </mxCell>
        <mxCell id="o_qiAfEK-X4W-5gXMjXQ-251" value="PAN" style="text;strokeColor=none;fillColor=none;spacingLeft=4;spacingRight=4;overflow=hidden;rotatable=0;points=[[0,0.5],[1,0.5]];portConstraint=eastwest;fontSize=12;whiteSpace=wrap;html=1;" parent="o_qiAfEK-X4W-5gXMjXQ-240" vertex="1">
          <mxGeometry y="324" width="190" height="30" as="geometry" />
        </mxCell>
        <mxCell id="o_qiAfEK-X4W-5gXMjXQ-252" value="country" style="text;strokeColor=none;fillColor=none;spacingLeft=4;spacingRight=4;overflow=hidden;rotatable=0;points=[[0,0.5],[1,0.5]];portConstraint=eastwest;fontSize=12;whiteSpace=wrap;html=1;" parent="o_qiAfEK-X4W-5gXMjXQ-240" vertex="1">
          <mxGeometry y="354" width="190" height="30" as="geometry" />
        </mxCell>
        <mxCell id="o_qiAfEK-X4W-5gXMjXQ-253" value="state" style="text;strokeColor=none;fillColor=none;spacingLeft=4;spacingRight=4;overflow=hidden;rotatable=0;points=[[0,0.5],[1,0.5]];portConstraint=eastwest;fontSize=12;whiteSpace=wrap;html=1;" parent="o_qiAfEK-X4W-5gXMjXQ-240" vertex="1">
          <mxGeometry y="384" width="190" height="30" as="geometry" />
        </mxCell>
        <mxCell id="o_qiAfEK-X4W-5gXMjXQ-254" value="city" style="text;strokeColor=none;fillColor=none;spacingLeft=4;spacingRight=4;overflow=hidden;rotatable=0;points=[[0,0.5],[1,0.5]];portConstraint=eastwest;fontSize=12;whiteSpace=wrap;html=1;" parent="o_qiAfEK-X4W-5gXMjXQ-240" vertex="1">
          <mxGeometry y="414" width="190" height="30" as="geometry" />
        </mxCell>
        <mxCell id="o_qiAfEK-X4W-5gXMjXQ-255" value="pin" style="text;strokeColor=none;fillColor=none;spacingLeft=4;spacingRight=4;overflow=hidden;rotatable=0;points=[[0,0.5],[1,0.5]];portConstraint=eastwest;fontSize=12;whiteSpace=wrap;html=1;" parent="o_qiAfEK-X4W-5gXMjXQ-240" vertex="1">
          <mxGeometry y="444" width="190" height="30" as="geometry" />
        </mxCell>
        <mxCell id="o_qiAfEK-X4W-5gXMjXQ-256" value="address" style="text;strokeColor=none;fillColor=none;spacingLeft=4;spacingRight=4;overflow=hidden;rotatable=0;points=[[0,0.5],[1,0.5]];portConstraint=eastwest;fontSize=12;whiteSpace=wrap;html=1;" parent="o_qiAfEK-X4W-5gXMjXQ-240" vertex="1">
          <mxGeometry y="474" width="190" height="30" as="geometry" />
        </mxCell>
        <mxCell id="o_qiAfEK-X4W-5gXMjXQ-257" value="registered_office_details" style="text;strokeColor=none;fillColor=none;spacingLeft=4;spacingRight=4;overflow=hidden;rotatable=0;points=[[0,0.5],[1,0.5]];portConstraint=eastwest;fontSize=12;whiteSpace=wrap;html=1;" parent="o_qiAfEK-X4W-5gXMjXQ-240" vertex="1">
          <mxGeometry y="504" width="190" height="30" as="geometry" />
        </mxCell>
        <mxCell id="o_qiAfEK-X4W-5gXMjXQ-258" value="email" style="text;strokeColor=none;fillColor=none;spacingLeft=4;spacingRight=4;overflow=hidden;rotatable=0;points=[[0,0.5],[1,0.5]];portConstraint=eastwest;fontSize=12;whiteSpace=wrap;html=1;" parent="o_qiAfEK-X4W-5gXMjXQ-240" vertex="1">
          <mxGeometry y="534" width="190" height="30" as="geometry" />
        </mxCell>
        <mxCell id="o_qiAfEK-X4W-5gXMjXQ-259" value="phoneno" style="text;strokeColor=none;fillColor=none;spacingLeft=4;spacingRight=4;overflow=hidden;rotatable=0;points=[[0,0.5],[1,0.5]];portConstraint=eastwest;fontSize=12;whiteSpace=wrap;html=1;" parent="o_qiAfEK-X4W-5gXMjXQ-240" vertex="1">
          <mxGeometry y="564" width="190" height="30" as="geometry" />
        </mxCell>
        <mxCell id="o_qiAfEK-X4W-5gXMjXQ-260" value="whatsappno" style="text;strokeColor=none;fillColor=none;spacingLeft=4;spacingRight=4;overflow=hidden;rotatable=0;points=[[0,0.5],[1,0.5]];portConstraint=eastwest;fontSize=12;whiteSpace=wrap;html=1;" parent="o_qiAfEK-X4W-5gXMjXQ-240" vertex="1">
          <mxGeometry y="594" width="190" height="30" as="geometry" />
        </mxCell>
        <mxCell id="o_qiAfEK-X4W-5gXMjXQ-297" value="company_id" style="text;strokeColor=none;fillColor=none;spacingLeft=4;spacingRight=4;overflow=hidden;rotatable=0;points=[[0,0.5],[1,0.5]];portConstraint=eastwest;fontSize=12;whiteSpace=wrap;html=1;" parent="o_qiAfEK-X4W-5gXMjXQ-240" vertex="1">
          <mxGeometry y="624" width="190" height="30" as="geometry" />
        </mxCell>
        <mxCell id="o_qiAfEK-X4W-5gXMjXQ-261" value="System_branch_brand_Details" style="swimlane;fontStyle=0;childLayout=stackLayout;horizontal=1;startSize=30;horizontalStack=0;resizeParent=1;resizeParentMax=0;resizeLast=0;collapsible=1;marginBottom=0;align=center;fontSize=14;" parent="1" vertex="1">
          <mxGeometry x="9" y="950" width="190" height="120" as="geometry" />
        </mxCell>
        <mxCell id="o_qiAfEK-X4W-5gXMjXQ-264" value="letter_header" style="text;strokeColor=none;fillColor=none;spacingLeft=4;spacingRight=4;overflow=hidden;rotatable=0;points=[[0,0.5],[1,0.5]];portConstraint=eastwest;fontSize=12;whiteSpace=wrap;html=1;" parent="o_qiAfEK-X4W-5gXMjXQ-261" vertex="1">
          <mxGeometry y="30" width="190" height="30" as="geometry" />
        </mxCell>
        <mxCell id="o_qiAfEK-X4W-5gXMjXQ-265" value="letter_footer" style="text;strokeColor=none;fillColor=none;spacingLeft=4;spacingRight=4;overflow=hidden;rotatable=0;points=[[0,0.5],[1,0.5]];portConstraint=eastwest;fontSize=12;whiteSpace=wrap;html=1;" parent="o_qiAfEK-X4W-5gXMjXQ-261" vertex="1">
          <mxGeometry y="60" width="190" height="30" as="geometry" />
        </mxCell>
        <mxCell id="o_qiAfEK-X4W-5gXMjXQ-266" value="company_id" style="text;strokeColor=none;fillColor=none;spacingLeft=4;spacingRight=4;overflow=hidden;rotatable=0;points=[[0,0.5],[1,0.5]];portConstraint=eastwest;fontSize=12;whiteSpace=wrap;html=1;" parent="o_qiAfEK-X4W-5gXMjXQ-261" vertex="1">
          <mxGeometry y="90" width="190" height="30" as="geometry" />
        </mxCell>
        <mxCell id="o_qiAfEK-X4W-5gXMjXQ-267" value="System_branch_contact_Details" style="swimlane;fontStyle=0;childLayout=stackLayout;horizontal=1;startSize=30;horizontalStack=0;resizeParent=1;resizeParentMax=0;resizeLast=0;collapsible=1;marginBottom=0;align=center;fontSize=14;" parent="1" vertex="1">
          <mxGeometry x="259" y="950" width="200" height="240" as="geometry" />
        </mxCell>
        <mxCell id="o_qiAfEK-X4W-5gXMjXQ-268" value="name" style="text;strokeColor=none;fillColor=none;spacingLeft=4;spacingRight=4;overflow=hidden;rotatable=0;points=[[0,0.5],[1,0.5]];portConstraint=eastwest;fontSize=12;whiteSpace=wrap;html=1;" parent="o_qiAfEK-X4W-5gXMjXQ-267" vertex="1">
          <mxGeometry y="30" width="200" height="30" as="geometry" />
        </mxCell>
        <mxCell id="o_qiAfEK-X4W-5gXMjXQ-269" value="designation" style="text;strokeColor=none;fillColor=none;spacingLeft=4;spacingRight=4;overflow=hidden;rotatable=0;points=[[0,0.5],[1,0.5]];portConstraint=eastwest;fontSize=12;whiteSpace=wrap;html=1;" parent="o_qiAfEK-X4W-5gXMjXQ-267" vertex="1">
          <mxGeometry y="60" width="200" height="30" as="geometry" />
        </mxCell>
        <mxCell id="o_qiAfEK-X4W-5gXMjXQ-270" value="role" style="text;strokeColor=none;fillColor=none;spacingLeft=4;spacingRight=4;overflow=hidden;rotatable=0;points=[[0,0.5],[1,0.5]];portConstraint=eastwest;fontSize=12;whiteSpace=wrap;html=1;" parent="o_qiAfEK-X4W-5gXMjXQ-267" vertex="1">
          <mxGeometry y="90" width="200" height="30" as="geometry" />
        </mxCell>
        <mxCell id="o_qiAfEK-X4W-5gXMjXQ-271" value="email" style="text;strokeColor=none;fillColor=none;spacingLeft=4;spacingRight=4;overflow=hidden;rotatable=0;points=[[0,0.5],[1,0.5]];portConstraint=eastwest;fontSize=12;whiteSpace=wrap;html=1;" parent="o_qiAfEK-X4W-5gXMjXQ-267" vertex="1">
          <mxGeometry y="120" width="200" height="30" as="geometry" />
        </mxCell>
        <mxCell id="o_qiAfEK-X4W-5gXMjXQ-272" value="phone" style="text;strokeColor=none;fillColor=none;spacingLeft=4;spacingRight=4;overflow=hidden;rotatable=0;points=[[0,0.5],[1,0.5]];portConstraint=eastwest;fontSize=12;whiteSpace=wrap;html=1;" parent="o_qiAfEK-X4W-5gXMjXQ-267" vertex="1">
          <mxGeometry y="150" width="200" height="30" as="geometry" />
        </mxCell>
        <mxCell id="o_qiAfEK-X4W-5gXMjXQ-273" value="whatsapp" style="text;strokeColor=none;fillColor=none;spacingLeft=4;spacingRight=4;overflow=hidden;rotatable=0;points=[[0,0.5],[1,0.5]];portConstraint=eastwest;fontSize=12;whiteSpace=wrap;html=1;" parent="o_qiAfEK-X4W-5gXMjXQ-267" vertex="1">
          <mxGeometry y="180" width="200" height="30" as="geometry" />
        </mxCell>
        <mxCell id="o_qiAfEK-X4W-5gXMjXQ-274" value="company_id" style="text;strokeColor=none;fillColor=none;spacingLeft=4;spacingRight=4;overflow=hidden;rotatable=0;points=[[0,0.5],[1,0.5]];portConstraint=eastwest;fontSize=12;whiteSpace=wrap;html=1;" parent="o_qiAfEK-X4W-5gXMjXQ-267" vertex="1">
          <mxGeometry y="210" width="200" height="30" as="geometry" />
        </mxCell>
        <mxCell id="o_qiAfEK-X4W-5gXMjXQ-308" value="System_board_directors_Details" style="swimlane;fontStyle=0;childLayout=stackLayout;horizontal=1;startSize=30;horizontalStack=0;resizeParent=1;resizeParentMax=0;resizeLast=0;collapsible=1;marginBottom=0;align=center;fontSize=14;" parent="1" vertex="1">
          <mxGeometry x="357" y="1340" width="200" height="234" as="geometry" />
        </mxCell>
        <mxCell id="o_qiAfEK-X4W-5gXMjXQ-309" value="name&lt;br&gt;&lt;br&gt;" style="text;strokeColor=none;fillColor=none;spacingLeft=4;spacingRight=4;overflow=hidden;rotatable=0;points=[[0,0.5],[1,0.5]];portConstraint=eastwest;fontSize=12;whiteSpace=wrap;html=1;" parent="o_qiAfEK-X4W-5gXMjXQ-308" vertex="1">
          <mxGeometry y="30" width="200" height="30" as="geometry" />
        </mxCell>
        <mxCell id="o_qiAfEK-X4W-5gXMjXQ-310" value="designation" style="text;strokeColor=none;fillColor=none;spacingLeft=4;spacingRight=4;overflow=hidden;rotatable=0;points=[[0,0.5],[1,0.5]];portConstraint=eastwest;fontSize=12;whiteSpace=wrap;html=1;" parent="o_qiAfEK-X4W-5gXMjXQ-308" vertex="1">
          <mxGeometry y="60" width="200" height="24" as="geometry" />
        </mxCell>
        <mxCell id="o_qiAfEK-X4W-5gXMjXQ-311" value="DOJ" style="text;strokeColor=none;fillColor=none;spacingLeft=4;spacingRight=4;overflow=hidden;rotatable=0;points=[[0,0.5],[1,0.5]];portConstraint=eastwest;fontSize=12;whiteSpace=wrap;html=1;" parent="o_qiAfEK-X4W-5gXMjXQ-308" vertex="1">
          <mxGeometry y="84" width="200" height="30" as="geometry" />
        </mxCell>
        <mxCell id="o_qiAfEK-X4W-5gXMjXQ-312" value="DOL" style="text;strokeColor=none;fillColor=none;spacingLeft=4;spacingRight=4;overflow=hidden;rotatable=0;points=[[0,0.5],[1,0.5]];portConstraint=eastwest;fontSize=12;whiteSpace=wrap;html=1;" parent="o_qiAfEK-X4W-5gXMjXQ-308" vertex="1">
          <mxGeometry y="114" width="200" height="30" as="geometry" />
        </mxCell>
        <mxCell id="o_qiAfEK-X4W-5gXMjXQ-313" value="share" style="text;strokeColor=none;fillColor=none;spacingLeft=4;spacingRight=4;overflow=hidden;rotatable=0;points=[[0,0.5],[1,0.5]];portConstraint=eastwest;fontSize=12;whiteSpace=wrap;html=1;" parent="o_qiAfEK-X4W-5gXMjXQ-308" vertex="1">
          <mxGeometry y="144" width="200" height="30" as="geometry" />
        </mxCell>
        <mxCell id="o_qiAfEK-X4W-5gXMjXQ-314" value="stake_holder" style="text;strokeColor=none;fillColor=none;spacingLeft=4;spacingRight=4;overflow=hidden;rotatable=0;points=[[0,0.5],[1,0.5]];portConstraint=eastwest;fontSize=12;whiteSpace=wrap;html=1;" parent="o_qiAfEK-X4W-5gXMjXQ-308" vertex="1">
          <mxGeometry y="174" width="200" height="30" as="geometry" />
        </mxCell>
        <mxCell id="o_qiAfEK-X4W-5gXMjXQ-316" value="company_id" style="text;strokeColor=none;fillColor=none;spacingLeft=4;spacingRight=4;overflow=hidden;rotatable=0;points=[[0,0.5],[1,0.5]];portConstraint=eastwest;fontSize=12;whiteSpace=wrap;html=1;" parent="o_qiAfEK-X4W-5gXMjXQ-308" vertex="1">
          <mxGeometry y="204" width="200" height="30" as="geometry" />
        </mxCell>
        <mxCell id="o_qiAfEK-X4W-5gXMjXQ-340" value="" style="edgeStyle=entityRelationEdgeStyle;fontSize=12;html=1;endArrow=ERoneToMany;rounded=0;entryX=0;entryY=0.5;entryDx=0;entryDy=0;exitX=1;exitY=0.5;exitDx=0;exitDy=0;" parent="1" source="o_qiAfEK-X4W-5gXMjXQ-2" target="o_qiAfEK-X4W-5gXMjXQ-50" edge="1">
          <mxGeometry width="100" height="100" relative="1" as="geometry">
            <mxPoint x="-270" y="-210" as="sourcePoint" />
            <mxPoint x="-170" y="-310" as="targetPoint" />
            <Array as="points">
              <mxPoint x="-410" y="-180" />
              <mxPoint x="-310" y="-170" />
            </Array>
          </mxGeometry>
        </mxCell>
        <mxCell id="o_qiAfEK-X4W-5gXMjXQ-345" value="" style="edgeStyle=orthogonalEdgeStyle;rounded=0;orthogonalLoop=1;jettySize=auto;html=1;" parent="1" source="o_qiAfEK-X4W-5gXMjXQ-50" target="o_qiAfEK-X4W-5gXMjXQ-53" edge="1">
          <mxGeometry relative="1" as="geometry" />
        </mxCell>
        <mxCell id="o_qiAfEK-X4W-5gXMjXQ-346" value="" style="edgeStyle=orthogonalEdgeStyle;rounded=0;orthogonalLoop=1;jettySize=auto;html=1;entryX=0;entryY=0.5;entryDx=0;entryDy=0;" parent="1" source="o_qiAfEK-X4W-5gXMjXQ-53" target="o_qiAfEK-X4W-5gXMjXQ-88" edge="1">
          <mxGeometry relative="1" as="geometry" />
        </mxCell>
        <mxCell id="o_qiAfEK-X4W-5gXMjXQ-347" value="" style="edgeStyle=orthogonalEdgeStyle;rounded=0;orthogonalLoop=1;jettySize=auto;html=1;" parent="1" source="o_qiAfEK-X4W-5gXMjXQ-88" target="o_qiAfEK-X4W-5gXMjXQ-90" edge="1">
          <mxGeometry relative="1" as="geometry" />
        </mxCell>
        <mxCell id="o_qiAfEK-X4W-5gXMjXQ-349" style="edgeStyle=orthogonalEdgeStyle;rounded=0;orthogonalLoop=1;jettySize=auto;html=1;entryX=0;entryY=0.5;entryDx=0;entryDy=0;" parent="1" source="o_qiAfEK-X4W-5gXMjXQ-90" target="o_qiAfEK-X4W-5gXMjXQ-102" edge="1">
          <mxGeometry relative="1" as="geometry" />
        </mxCell>
        <mxCell id="o_qiAfEK-X4W-5gXMjXQ-350" style="edgeStyle=orthogonalEdgeStyle;rounded=0;orthogonalLoop=1;jettySize=auto;html=1;entryX=0;entryY=0.5;entryDx=0;entryDy=0;" parent="1" source="o_qiAfEK-X4W-5gXMjXQ-102" target="o_qiAfEK-X4W-5gXMjXQ-109" edge="1">
          <mxGeometry relative="1" as="geometry" />
        </mxCell>
        <mxCell id="o_qiAfEK-X4W-5gXMjXQ-351" style="edgeStyle=orthogonalEdgeStyle;rounded=0;orthogonalLoop=1;jettySize=auto;html=1;entryX=0;entryY=0.5;entryDx=0;entryDy=0;" parent="1" source="o_qiAfEK-X4W-5gXMjXQ-109" target="o_qiAfEK-X4W-5gXMjXQ-125" edge="1">
          <mxGeometry relative="1" as="geometry" />
        </mxCell>
        <mxCell id="yTR-TWh72luDhSEqE3yW-48" value="Projects" style="swimlane;fontStyle=0;childLayout=stackLayout;horizontal=1;startSize=30;horizontalStack=0;resizeParent=1;resizeParentMax=0;resizeLast=0;collapsible=1;marginBottom=0;align=center;fontSize=14;" parent="1" vertex="1">
          <mxGeometry x="-287" y="2629" width="200" height="378" as="geometry" />
        </mxCell>
        <mxCell id="yTR-TWh72luDhSEqE3yW-49" value="project_id" style="text;strokeColor=none;fillColor=none;spacingLeft=4;spacingRight=4;overflow=hidden;rotatable=0;points=[[0,0.5],[1,0.5]];portConstraint=eastwest;fontSize=12;whiteSpace=wrap;html=1;" parent="yTR-TWh72luDhSEqE3yW-48" vertex="1">
          <mxGeometry y="30" width="200" height="30" as="geometry" />
        </mxCell>
        <mxCell id="yTR-TWh72luDhSEqE3yW-50" value="project_type" style="text;strokeColor=none;fillColor=none;spacingLeft=4;spacingRight=4;overflow=hidden;rotatable=0;points=[[0,0.5],[1,0.5]];portConstraint=eastwest;fontSize=12;whiteSpace=wrap;html=1;" parent="yTR-TWh72luDhSEqE3yW-48" vertex="1">
          <mxGeometry y="60" width="200" height="24" as="geometry" />
        </mxCell>
        <mxCell id="yTR-TWh72luDhSEqE3yW-51" value="payment_schedule" style="text;strokeColor=none;fillColor=none;spacingLeft=4;spacingRight=4;overflow=hidden;rotatable=0;points=[[0,0.5],[1,0.5]];portConstraint=eastwest;fontSize=12;whiteSpace=wrap;html=1;" parent="yTR-TWh72luDhSEqE3yW-48" vertex="1">
          <mxGeometry y="84" width="200" height="24" as="geometry" />
        </mxCell>
        <mxCell id="yTR-TWh72luDhSEqE3yW-52" value="product_type" style="text;strokeColor=none;fillColor=none;spacingLeft=4;spacingRight=4;overflow=hidden;rotatable=0;points=[[0,0.5],[1,0.5]];portConstraint=eastwest;fontSize=12;whiteSpace=wrap;html=1;" parent="yTR-TWh72luDhSEqE3yW-48" vertex="1">
          <mxGeometry y="108" width="200" height="30" as="geometry" />
        </mxCell>
        <mxCell id="yTR-TWh72luDhSEqE3yW-100" value="raise_cost_type" style="text;strokeColor=none;fillColor=none;spacingLeft=4;spacingRight=4;overflow=hidden;rotatable=0;points=[[0,0.5],[1,0.5]];portConstraint=eastwest;fontSize=12;whiteSpace=wrap;html=1;" parent="yTR-TWh72luDhSEqE3yW-48" vertex="1">
          <mxGeometry y="138" width="200" height="30" as="geometry" />
        </mxCell>
        <mxCell id="yTR-TWh72luDhSEqE3yW-101" value="amenity_master" style="text;strokeColor=none;fillColor=none;spacingLeft=4;spacingRight=4;overflow=hidden;rotatable=0;points=[[0,0.5],[1,0.5]];portConstraint=eastwest;fontSize=12;whiteSpace=wrap;html=1;" parent="yTR-TWh72luDhSEqE3yW-48" vertex="1">
          <mxGeometry y="168" width="200" height="30" as="geometry" />
        </mxCell>
        <mxCell id="yTR-TWh72luDhSEqE3yW-102" value="nearby_master" style="text;strokeColor=none;fillColor=none;spacingLeft=4;spacingRight=4;overflow=hidden;rotatable=0;points=[[0,0.5],[1,0.5]];portConstraint=eastwest;fontSize=12;whiteSpace=wrap;html=1;" parent="yTR-TWh72luDhSEqE3yW-48" vertex="1">
          <mxGeometry y="198" width="200" height="30" as="geometry" />
        </mxCell>
        <mxCell id="yTR-TWh72luDhSEqE3yW-103" value="facing_master" style="text;strokeColor=none;fillColor=none;spacingLeft=4;spacingRight=4;overflow=hidden;rotatable=0;points=[[0,0.5],[1,0.5]];portConstraint=eastwest;fontSize=12;whiteSpace=wrap;html=1;" parent="yTR-TWh72luDhSEqE3yW-48" vertex="1">
          <mxGeometry y="228" width="200" height="30" as="geometry" />
        </mxCell>
        <mxCell id="yTR-TWh72luDhSEqE3yW-104" value="commision_setup" style="text;strokeColor=none;fillColor=none;spacingLeft=4;spacingRight=4;overflow=hidden;rotatable=0;points=[[0,0.5],[1,0.5]];portConstraint=eastwest;fontSize=12;whiteSpace=wrap;html=1;" parent="yTR-TWh72luDhSEqE3yW-48" vertex="1">
          <mxGeometry y="258" width="200" height="30" as="geometry" />
        </mxCell>
        <mxCell id="yTR-TWh72luDhSEqE3yW-53" value="ownership_type" style="text;strokeColor=none;fillColor=none;spacingLeft=4;spacingRight=4;overflow=hidden;rotatable=0;points=[[0,0.5],[1,0.5]];portConstraint=eastwest;fontSize=12;whiteSpace=wrap;html=1;" parent="yTR-TWh72luDhSEqE3yW-48" vertex="1">
          <mxGeometry y="288" width="200" height="30" as="geometry" />
        </mxCell>
        <mxCell id="yTR-TWh72luDhSEqE3yW-54" value="approval_body" style="text;strokeColor=none;fillColor=none;spacingLeft=4;spacingRight=4;overflow=hidden;rotatable=0;points=[[0,0.5],[1,0.5]];portConstraint=eastwest;fontSize=12;whiteSpace=wrap;html=1;" parent="yTR-TWh72luDhSEqE3yW-48" vertex="1">
          <mxGeometry y="318" width="200" height="30" as="geometry" />
        </mxCell>
        <mxCell id="yTR-TWh72luDhSEqE3yW-55" value="tax" style="text;strokeColor=none;fillColor=none;spacingLeft=4;spacingRight=4;overflow=hidden;rotatable=0;points=[[0,0.5],[1,0.5]];portConstraint=eastwest;fontSize=12;whiteSpace=wrap;html=1;" parent="yTR-TWh72luDhSEqE3yW-48" vertex="1">
          <mxGeometry y="348" width="200" height="30" as="geometry" />
        </mxCell>
        <mxCell id="yTR-TWh72luDhSEqE3yW-73" value="Projects_product" style="swimlane;fontStyle=0;childLayout=stackLayout;horizontal=1;startSize=30;horizontalStack=0;resizeParent=1;resizeParentMax=0;resizeLast=0;collapsible=1;marginBottom=0;align=center;fontSize=14;" parent="1" vertex="1">
          <mxGeometry x="-8" y="2629" width="200" height="378" as="geometry" />
        </mxCell>
        <mxCell id="yTR-TWh72luDhSEqE3yW-74" value="product_name" style="text;strokeColor=none;fillColor=none;spacingLeft=4;spacingRight=4;overflow=hidden;rotatable=0;points=[[0,0.5],[1,0.5]];portConstraint=eastwest;fontSize=12;whiteSpace=wrap;html=1;" parent="yTR-TWh72luDhSEqE3yW-73" vertex="1">
          <mxGeometry y="30" width="200" height="30" as="geometry" />
        </mxCell>
        <mxCell id="yTR-TWh72luDhSEqE3yW-75" value="product_location" style="text;strokeColor=none;fillColor=none;spacingLeft=4;spacingRight=4;overflow=hidden;rotatable=0;points=[[0,0.5],[1,0.5]];portConstraint=eastwest;fontSize=12;whiteSpace=wrap;html=1;" parent="yTR-TWh72luDhSEqE3yW-73" vertex="1">
          <mxGeometry y="60" width="200" height="24" as="geometry" />
        </mxCell>
        <mxCell id="yTR-TWh72luDhSEqE3yW-76" value="product_segment" style="text;strokeColor=none;fillColor=none;spacingLeft=4;spacingRight=4;overflow=hidden;rotatable=0;points=[[0,0.5],[1,0.5]];portConstraint=eastwest;fontSize=12;whiteSpace=wrap;html=1;" parent="yTR-TWh72luDhSEqE3yW-73" vertex="1">
          <mxGeometry y="84" width="200" height="24" as="geometry" />
        </mxCell>
        <mxCell id="yTR-TWh72luDhSEqE3yW-77" value="product_type" style="text;strokeColor=none;fillColor=none;spacingLeft=4;spacingRight=4;overflow=hidden;rotatable=0;points=[[0,0.5],[1,0.5]];portConstraint=eastwest;fontSize=12;whiteSpace=wrap;html=1;" parent="yTR-TWh72luDhSEqE3yW-73" vertex="1">
          <mxGeometry y="108" width="200" height="30" as="geometry" />
        </mxCell>
        <mxCell id="yTR-TWh72luDhSEqE3yW-78" value="product_variance" style="text;strokeColor=none;fillColor=none;spacingLeft=4;spacingRight=4;overflow=hidden;rotatable=0;points=[[0,0.5],[1,0.5]];portConstraint=eastwest;fontSize=12;whiteSpace=wrap;html=1;" parent="yTR-TWh72luDhSEqE3yW-73" vertex="1">
          <mxGeometry y="138" width="200" height="30" as="geometry" />
        </mxCell>
        <mxCell id="yTR-TWh72luDhSEqE3yW-79" value="product_no" style="text;strokeColor=none;fillColor=none;spacingLeft=4;spacingRight=4;overflow=hidden;rotatable=0;points=[[0,0.5],[1,0.5]];portConstraint=eastwest;fontSize=12;whiteSpace=wrap;html=1;" parent="yTR-TWh72luDhSEqE3yW-73" vertex="1">
          <mxGeometry y="168" width="200" height="30" as="geometry" />
        </mxCell>
        <mxCell id="yTR-TWh72luDhSEqE3yW-80" value="product_area" style="text;strokeColor=none;fillColor=none;spacingLeft=4;spacingRight=4;overflow=hidden;rotatable=0;points=[[0,0.5],[1,0.5]];portConstraint=eastwest;fontSize=12;whiteSpace=wrap;html=1;" parent="yTR-TWh72luDhSEqE3yW-73" vertex="1">
          <mxGeometry y="198" width="200" height="30" as="geometry" />
        </mxCell>
        <mxCell id="yTR-TWh72luDhSEqE3yW-81" value="product_image" style="text;strokeColor=none;fillColor=none;spacingLeft=4;spacingRight=4;overflow=hidden;rotatable=0;points=[[0,0.5],[1,0.5]];portConstraint=eastwest;fontSize=12;whiteSpace=wrap;html=1;" parent="yTR-TWh72luDhSEqE3yW-73" vertex="1">
          <mxGeometry y="228" width="200" height="30" as="geometry" />
        </mxCell>
        <mxCell id="yTR-TWh72luDhSEqE3yW-91" value="product_cost" style="text;strokeColor=none;fillColor=none;spacingLeft=4;spacingRight=4;overflow=hidden;rotatable=0;points=[[0,0.5],[1,0.5]];portConstraint=eastwest;fontSize=12;whiteSpace=wrap;html=1;" parent="yTR-TWh72luDhSEqE3yW-73" vertex="1">
          <mxGeometry y="258" width="200" height="30" as="geometry" />
        </mxCell>
        <mxCell id="yTR-TWh72luDhSEqE3yW-92" value="product_amenity" style="text;strokeColor=none;fillColor=none;spacingLeft=4;spacingRight=4;overflow=hidden;rotatable=0;points=[[0,0.5],[1,0.5]];portConstraint=eastwest;fontSize=12;whiteSpace=wrap;html=1;" parent="yTR-TWh72luDhSEqE3yW-73" vertex="1">
          <mxGeometry y="288" width="200" height="30" as="geometry" />
        </mxCell>
        <mxCell id="yTR-TWh72luDhSEqE3yW-93" value="product_desc" style="text;strokeColor=none;fillColor=none;spacingLeft=4;spacingRight=4;overflow=hidden;rotatable=0;points=[[0,0.5],[1,0.5]];portConstraint=eastwest;fontSize=12;whiteSpace=wrap;html=1;" parent="yTR-TWh72luDhSEqE3yW-73" vertex="1">
          <mxGeometry y="318" width="200" height="30" as="geometry" />
        </mxCell>
        <mxCell id="yTR-TWh72luDhSEqE3yW-94" value="project_id" style="text;strokeColor=none;fillColor=none;spacingLeft=4;spacingRight=4;overflow=hidden;rotatable=0;points=[[0,0.5],[1,0.5]];portConstraint=eastwest;fontSize=12;whiteSpace=wrap;html=1;" parent="yTR-TWh72luDhSEqE3yW-73" vertex="1">
          <mxGeometry y="348" width="200" height="30" as="geometry" />
        </mxCell>
        <mxCell id="yTR-TWh72luDhSEqE3yW-82" value="Projects_payment" style="swimlane;fontStyle=0;childLayout=stackLayout;horizontal=1;startSize=30;horizontalStack=0;resizeParent=1;resizeParentMax=0;resizeLast=0;collapsible=1;marginBottom=0;align=center;fontSize=14;" parent="1" vertex="1">
          <mxGeometry x="272" y="2629" width="200" height="138" as="geometry" />
        </mxCell>
        <mxCell id="yTR-TWh72luDhSEqE3yW-83" value="payment_title" style="text;strokeColor=none;fillColor=none;spacingLeft=4;spacingRight=4;overflow=hidden;rotatable=0;points=[[0,0.5],[1,0.5]];portConstraint=eastwest;fontSize=12;whiteSpace=wrap;html=1;" parent="yTR-TWh72luDhSEqE3yW-82" vertex="1">
          <mxGeometry y="30" width="200" height="30" as="geometry" />
        </mxCell>
        <mxCell id="yTR-TWh72luDhSEqE3yW-84" value="payment_value" style="text;strokeColor=none;fillColor=none;spacingLeft=4;spacingRight=4;overflow=hidden;rotatable=0;points=[[0,0.5],[1,0.5]];portConstraint=eastwest;fontSize=12;whiteSpace=wrap;html=1;" parent="yTR-TWh72luDhSEqE3yW-82" vertex="1">
          <mxGeometry y="60" width="200" height="24" as="geometry" />
        </mxCell>
        <mxCell id="yTR-TWh72luDhSEqE3yW-85" value="payment_desc" style="text;strokeColor=none;fillColor=none;spacingLeft=4;spacingRight=4;overflow=hidden;rotatable=0;points=[[0,0.5],[1,0.5]];portConstraint=eastwest;fontSize=12;whiteSpace=wrap;html=1;" parent="yTR-TWh72luDhSEqE3yW-82" vertex="1">
          <mxGeometry y="84" width="200" height="24" as="geometry" />
        </mxCell>
        <mxCell id="yTR-TWh72luDhSEqE3yW-90" value="project_id" style="text;strokeColor=none;fillColor=none;spacingLeft=4;spacingRight=4;overflow=hidden;rotatable=0;points=[[0,0.5],[1,0.5]];portConstraint=eastwest;fontSize=12;whiteSpace=wrap;html=1;" parent="yTR-TWh72luDhSEqE3yW-82" vertex="1">
          <mxGeometry y="108" width="200" height="30" as="geometry" />
        </mxCell>
        <mxCell id="yTR-TWh72luDhSEqE3yW-95" value="Projects_amenity" style="swimlane;fontStyle=0;childLayout=stackLayout;horizontal=1;startSize=30;horizontalStack=0;resizeParent=1;resizeParentMax=0;resizeLast=0;collapsible=1;marginBottom=0;align=center;fontSize=14;" parent="1" vertex="1">
          <mxGeometry x="552" y="2629" width="200" height="138" as="geometry" />
        </mxCell>
        <mxCell id="yTR-TWh72luDhSEqE3yW-96" value="amenity_title" style="text;strokeColor=none;fillColor=none;spacingLeft=4;spacingRight=4;overflow=hidden;rotatable=0;points=[[0,0.5],[1,0.5]];portConstraint=eastwest;fontSize=12;whiteSpace=wrap;html=1;" parent="yTR-TWh72luDhSEqE3yW-95" vertex="1">
          <mxGeometry y="30" width="200" height="30" as="geometry" />
        </mxCell>
        <mxCell id="yTR-TWh72luDhSEqE3yW-97" value="amenity_desc" style="text;strokeColor=none;fillColor=none;spacingLeft=4;spacingRight=4;overflow=hidden;rotatable=0;points=[[0,0.5],[1,0.5]];portConstraint=eastwest;fontSize=12;whiteSpace=wrap;html=1;" parent="yTR-TWh72luDhSEqE3yW-95" vertex="1">
          <mxGeometry y="60" width="200" height="24" as="geometry" />
        </mxCell>
        <mxCell id="yTR-TWh72luDhSEqE3yW-98" value="amenity_image" style="text;strokeColor=none;fillColor=none;spacingLeft=4;spacingRight=4;overflow=hidden;rotatable=0;points=[[0,0.5],[1,0.5]];portConstraint=eastwest;fontSize=12;whiteSpace=wrap;html=1;" parent="yTR-TWh72luDhSEqE3yW-95" vertex="1">
          <mxGeometry y="84" width="200" height="24" as="geometry" />
        </mxCell>
        <mxCell id="yTR-TWh72luDhSEqE3yW-99" value="project_id" style="text;strokeColor=none;fillColor=none;spacingLeft=4;spacingRight=4;overflow=hidden;rotatable=0;points=[[0,0.5],[1,0.5]];portConstraint=eastwest;fontSize=12;whiteSpace=wrap;html=1;" parent="yTR-TWh72luDhSEqE3yW-95" vertex="1">
          <mxGeometry y="108" width="200" height="30" as="geometry" />
        </mxCell>
        <mxCell id="yTR-TWh72luDhSEqE3yW-105" value="Projects_tax" style="swimlane;fontStyle=0;childLayout=stackLayout;horizontal=1;startSize=30;horizontalStack=0;resizeParent=1;resizeParentMax=0;resizeLast=0;collapsible=1;marginBottom=0;align=center;fontSize=14;" parent="1" vertex="1">
          <mxGeometry x="832" y="2629" width="200" height="114" as="geometry" />
        </mxCell>
        <mxCell id="yTR-TWh72luDhSEqE3yW-106" value="tax_name" style="text;strokeColor=none;fillColor=none;spacingLeft=4;spacingRight=4;overflow=hidden;rotatable=0;points=[[0,0.5],[1,0.5]];portConstraint=eastwest;fontSize=12;whiteSpace=wrap;html=1;" parent="yTR-TWh72luDhSEqE3yW-105" vertex="1">
          <mxGeometry y="30" width="200" height="30" as="geometry" />
        </mxCell>
        <mxCell id="yTR-TWh72luDhSEqE3yW-107" value="tax" style="text;strokeColor=none;fillColor=none;spacingLeft=4;spacingRight=4;overflow=hidden;rotatable=0;points=[[0,0.5],[1,0.5]];portConstraint=eastwest;fontSize=12;whiteSpace=wrap;html=1;" parent="yTR-TWh72luDhSEqE3yW-105" vertex="1">
          <mxGeometry y="60" width="200" height="24" as="geometry" />
        </mxCell>
        <mxCell id="yTR-TWh72luDhSEqE3yW-109" value="project_id" style="text;strokeColor=none;fillColor=none;spacingLeft=4;spacingRight=4;overflow=hidden;rotatable=0;points=[[0,0.5],[1,0.5]];portConstraint=eastwest;fontSize=12;whiteSpace=wrap;html=1;" parent="yTR-TWh72luDhSEqE3yW-105" vertex="1">
          <mxGeometry y="84" width="200" height="30" as="geometry" />
        </mxCell>
        <mxCell id="nUpQjzPemizc6PmGDul9-43" value="New_project_development" style="swimlane;fontStyle=0;childLayout=stackLayout;horizontal=1;startSize=30;horizontalStack=0;resizeParent=1;resizeParentMax=0;resizeLast=0;collapsible=1;marginBottom=0;align=center;fontSize=14;" parent="1" vertex="1">
          <mxGeometry x="-234" y="2223" width="200" height="258" as="geometry" />
        </mxCell>
        <mxCell id="nUpQjzPemizc6PmGDul9-44" value="id" style="text;strokeColor=none;fillColor=none;spacingLeft=4;spacingRight=4;overflow=hidden;rotatable=0;points=[[0,0.5],[1,0.5]];portConstraint=eastwest;fontSize=12;whiteSpace=wrap;html=1;" parent="nUpQjzPemizc6PmGDul9-43" vertex="1">
          <mxGeometry y="30" width="200" height="30" as="geometry" />
        </mxCell>
        <mxCell id="nUpQjzPemizc6PmGDul9-45" value="location" style="text;strokeColor=none;fillColor=none;spacingLeft=4;spacingRight=4;overflow=hidden;rotatable=0;points=[[0,0.5],[1,0.5]];portConstraint=eastwest;fontSize=12;whiteSpace=wrap;html=1;" parent="nUpQjzPemizc6PmGDul9-43" vertex="1">
          <mxGeometry y="60" width="200" height="24" as="geometry" />
        </mxCell>
        <mxCell id="nUpQjzPemizc6PmGDul9-46" value="segment" style="text;strokeColor=none;fillColor=none;spacingLeft=4;spacingRight=4;overflow=hidden;rotatable=0;points=[[0,0.5],[1,0.5]];portConstraint=eastwest;fontSize=12;whiteSpace=wrap;html=1;" parent="nUpQjzPemizc6PmGDul9-43" vertex="1">
          <mxGeometry y="84" width="200" height="24" as="geometry" />
        </mxCell>
        <mxCell id="nUpQjzPemizc6PmGDul9-47" value="type" style="text;strokeColor=none;fillColor=none;spacingLeft=4;spacingRight=4;overflow=hidden;rotatable=0;points=[[0,0.5],[1,0.5]];portConstraint=eastwest;fontSize=12;whiteSpace=wrap;html=1;" parent="nUpQjzPemizc6PmGDul9-43" vertex="1">
          <mxGeometry y="108" width="200" height="30" as="geometry" />
        </mxCell>
        <mxCell id="nUpQjzPemizc6PmGDul9-48" value="ownership_type" style="text;strokeColor=none;fillColor=none;spacingLeft=4;spacingRight=4;overflow=hidden;rotatable=0;points=[[0,0.5],[1,0.5]];portConstraint=eastwest;fontSize=12;whiteSpace=wrap;html=1;" parent="nUpQjzPemizc6PmGDul9-43" vertex="1">
          <mxGeometry y="138" width="200" height="30" as="geometry" />
        </mxCell>
        <mxCell id="nUpQjzPemizc6PmGDul9-49" value="name" style="text;strokeColor=none;fillColor=none;spacingLeft=4;spacingRight=4;overflow=hidden;rotatable=0;points=[[0,0.5],[1,0.5]];portConstraint=eastwest;fontSize=12;whiteSpace=wrap;html=1;" parent="nUpQjzPemizc6PmGDul9-43" vertex="1">
          <mxGeometry y="168" width="200" height="30" as="geometry" />
        </mxCell>
        <mxCell id="nUpQjzPemizc6PmGDul9-50" value="description" style="text;strokeColor=none;fillColor=none;spacingLeft=4;spacingRight=4;overflow=hidden;rotatable=0;points=[[0,0.5],[1,0.5]];portConstraint=eastwest;fontSize=12;whiteSpace=wrap;html=1;" parent="nUpQjzPemizc6PmGDul9-43" vertex="1">
          <mxGeometry y="198" width="200" height="30" as="geometry" />
        </mxCell>
        <mxCell id="nUpQjzPemizc6PmGDul9-51" value="area" style="text;strokeColor=none;fillColor=none;spacingLeft=4;spacingRight=4;overflow=hidden;rotatable=0;points=[[0,0.5],[1,0.5]];portConstraint=eastwest;fontSize=12;whiteSpace=wrap;html=1;" parent="nUpQjzPemizc6PmGDul9-43" vertex="1">
          <mxGeometry y="228" width="200" height="30" as="geometry" />
        </mxCell>
        <mxCell id="nUpQjzPemizc6PmGDul9-52" value="New_project_approvals" style="swimlane;fontStyle=0;childLayout=stackLayout;horizontal=1;startSize=30;horizontalStack=0;resizeParent=1;resizeParentMax=0;resizeLast=0;collapsible=1;marginBottom=0;align=center;fontSize=14;" parent="1" vertex="1">
          <mxGeometry x="-487" y="2223" width="200" height="288" as="geometry" />
        </mxCell>
        <mxCell id="nUpQjzPemizc6PmGDul9-53" value="id" style="text;strokeColor=none;fillColor=none;spacingLeft=4;spacingRight=4;overflow=hidden;rotatable=0;points=[[0,0.5],[1,0.5]];portConstraint=eastwest;fontSize=12;whiteSpace=wrap;html=1;" parent="nUpQjzPemizc6PmGDul9-52" vertex="1">
          <mxGeometry y="30" width="200" height="30" as="geometry" />
        </mxCell>
        <mxCell id="nUpQjzPemizc6PmGDul9-54" value="body" style="text;strokeColor=none;fillColor=none;spacingLeft=4;spacingRight=4;overflow=hidden;rotatable=0;points=[[0,0.5],[1,0.5]];portConstraint=eastwest;fontSize=12;whiteSpace=wrap;html=1;" parent="nUpQjzPemizc6PmGDul9-52" vertex="1">
          <mxGeometry y="60" width="200" height="24" as="geometry" />
        </mxCell>
        <mxCell id="nUpQjzPemizc6PmGDul9-55" value="date" style="text;strokeColor=none;fillColor=none;spacingLeft=4;spacingRight=4;overflow=hidden;rotatable=0;points=[[0,0.5],[1,0.5]];portConstraint=eastwest;fontSize=12;whiteSpace=wrap;html=1;" parent="nUpQjzPemizc6PmGDul9-52" vertex="1">
          <mxGeometry y="84" width="200" height="24" as="geometry" />
        </mxCell>
        <mxCell id="nUpQjzPemizc6PmGDul9-56" value="employee" style="text;strokeColor=none;fillColor=none;spacingLeft=4;spacingRight=4;overflow=hidden;rotatable=0;points=[[0,0.5],[1,0.5]];portConstraint=eastwest;fontSize=12;whiteSpace=wrap;html=1;" parent="nUpQjzPemizc6PmGDul9-52" vertex="1">
          <mxGeometry y="108" width="200" height="30" as="geometry" />
        </mxCell>
        <mxCell id="nUpQjzPemizc6PmGDul9-57" value="agency" style="text;strokeColor=none;fillColor=none;spacingLeft=4;spacingRight=4;overflow=hidden;rotatable=0;points=[[0,0.5],[1,0.5]];portConstraint=eastwest;fontSize=12;whiteSpace=wrap;html=1;" parent="nUpQjzPemizc6PmGDul9-52" vertex="1">
          <mxGeometry y="138" width="200" height="30" as="geometry" />
        </mxCell>
        <mxCell id="nUpQjzPemizc6PmGDul9-58" value="approval_date" style="text;strokeColor=none;fillColor=none;spacingLeft=4;spacingRight=4;overflow=hidden;rotatable=0;points=[[0,0.5],[1,0.5]];portConstraint=eastwest;fontSize=12;whiteSpace=wrap;html=1;" parent="nUpQjzPemizc6PmGDul9-52" vertex="1">
          <mxGeometry y="168" width="200" height="30" as="geometry" />
        </mxCell>
        <mxCell id="nUpQjzPemizc6PmGDul9-59" value="validity" style="text;strokeColor=none;fillColor=none;spacingLeft=4;spacingRight=4;overflow=hidden;rotatable=0;points=[[0,0.5],[1,0.5]];portConstraint=eastwest;fontSize=12;whiteSpace=wrap;html=1;" parent="nUpQjzPemizc6PmGDul9-52" vertex="1">
          <mxGeometry y="198" width="200" height="30" as="geometry" />
        </mxCell>
        <mxCell id="nUpQjzPemizc6PmGDul9-60" value="document" style="text;strokeColor=none;fillColor=none;spacingLeft=4;spacingRight=4;overflow=hidden;rotatable=0;points=[[0,0.5],[1,0.5]];portConstraint=eastwest;fontSize=12;whiteSpace=wrap;html=1;" parent="nUpQjzPemizc6PmGDul9-52" vertex="1">
          <mxGeometry y="228" width="200" height="30" as="geometry" />
        </mxCell>
        <mxCell id="nUpQjzPemizc6PmGDul9-61" value="project_id" style="text;strokeColor=none;fillColor=none;spacingLeft=4;spacingRight=4;overflow=hidden;rotatable=0;points=[[0,0.5],[1,0.5]];portConstraint=eastwest;fontSize=12;whiteSpace=wrap;html=1;" parent="nUpQjzPemizc6PmGDul9-52" vertex="1">
          <mxGeometry y="258" width="200" height="30" as="geometry" />
        </mxCell>
        <mxCell id="nUpQjzPemizc6PmGDul9-62" value="New_project_cost" style="swimlane;fontStyle=0;childLayout=stackLayout;horizontal=1;startSize=30;horizontalStack=0;resizeParent=1;resizeParentMax=0;resizeLast=0;collapsible=1;marginBottom=0;align=center;fontSize=14;" parent="1" vertex="1">
          <mxGeometry x="9" y="2242" width="200" height="198" as="geometry" />
        </mxCell>
        <mxCell id="nUpQjzPemizc6PmGDul9-63" value="id" style="text;strokeColor=none;fillColor=none;spacingLeft=4;spacingRight=4;overflow=hidden;rotatable=0;points=[[0,0.5],[1,0.5]];portConstraint=eastwest;fontSize=12;whiteSpace=wrap;html=1;" parent="nUpQjzPemizc6PmGDul9-62" vertex="1">
          <mxGeometry y="30" width="200" height="30" as="geometry" />
        </mxCell>
        <mxCell id="nUpQjzPemizc6PmGDul9-64" value="cost" style="text;strokeColor=none;fillColor=none;spacingLeft=4;spacingRight=4;overflow=hidden;rotatable=0;points=[[0,0.5],[1,0.5]];portConstraint=eastwest;fontSize=12;whiteSpace=wrap;html=1;" parent="nUpQjzPemizc6PmGDul9-62" vertex="1">
          <mxGeometry y="60" width="200" height="24" as="geometry" />
        </mxCell>
        <mxCell id="nUpQjzPemizc6PmGDul9-65" value="date" style="text;strokeColor=none;fillColor=none;spacingLeft=4;spacingRight=4;overflow=hidden;rotatable=0;points=[[0,0.5],[1,0.5]];portConstraint=eastwest;fontSize=12;whiteSpace=wrap;html=1;" parent="nUpQjzPemizc6PmGDul9-62" vertex="1">
          <mxGeometry y="84" width="200" height="24" as="geometry" />
        </mxCell>
        <mxCell id="nUpQjzPemizc6PmGDul9-66" value="next_followup_date" style="text;strokeColor=none;fillColor=none;spacingLeft=4;spacingRight=4;overflow=hidden;rotatable=0;points=[[0,0.5],[1,0.5]];portConstraint=eastwest;fontSize=12;whiteSpace=wrap;html=1;" parent="nUpQjzPemizc6PmGDul9-62" vertex="1">
          <mxGeometry y="108" width="200" height="30" as="geometry" />
        </mxCell>
        <mxCell id="nUpQjzPemizc6PmGDul9-67" value="talking_point" style="text;strokeColor=none;fillColor=none;spacingLeft=4;spacingRight=4;overflow=hidden;rotatable=0;points=[[0,0.5],[1,0.5]];portConstraint=eastwest;fontSize=12;whiteSpace=wrap;html=1;" parent="nUpQjzPemizc6PmGDul9-62" vertex="1">
          <mxGeometry y="138" width="200" height="30" as="geometry" />
        </mxCell>
        <mxCell id="nUpQjzPemizc6PmGDul9-68" value="project_id" style="text;strokeColor=none;fillColor=none;spacingLeft=4;spacingRight=4;overflow=hidden;rotatable=0;points=[[0,0.5],[1,0.5]];portConstraint=eastwest;fontSize=12;whiteSpace=wrap;html=1;" parent="nUpQjzPemizc6PmGDul9-62" vertex="1">
          <mxGeometry y="168" width="200" height="30" as="geometry" />
        </mxCell>
        <mxCell id="nUpQjzPemizc6PmGDul9-69" value="New_project_docs" style="swimlane;fontStyle=0;childLayout=stackLayout;horizontal=1;startSize=30;horizontalStack=0;resizeParent=1;resizeParentMax=0;resizeLast=0;collapsible=1;marginBottom=0;align=center;fontSize=14;" parent="1" vertex="1">
          <mxGeometry x="269" y="2238" width="200" height="258" as="geometry" />
        </mxCell>
        <mxCell id="nUpQjzPemizc6PmGDul9-70" value="id" style="text;strokeColor=none;fillColor=none;spacingLeft=4;spacingRight=4;overflow=hidden;rotatable=0;points=[[0,0.5],[1,0.5]];portConstraint=eastwest;fontSize=12;whiteSpace=wrap;html=1;" parent="nUpQjzPemizc6PmGDul9-69" vertex="1">
          <mxGeometry y="30" width="200" height="30" as="geometry" />
        </mxCell>
        <mxCell id="nUpQjzPemizc6PmGDul9-71" value="type" style="text;strokeColor=none;fillColor=none;spacingLeft=4;spacingRight=4;overflow=hidden;rotatable=0;points=[[0,0.5],[1,0.5]];portConstraint=eastwest;fontSize=12;whiteSpace=wrap;html=1;" parent="nUpQjzPemizc6PmGDul9-69" vertex="1">
          <mxGeometry y="60" width="200" height="24" as="geometry" />
        </mxCell>
        <mxCell id="nUpQjzPemizc6PmGDul9-72" value="doc_no" style="text;strokeColor=none;fillColor=none;spacingLeft=4;spacingRight=4;overflow=hidden;rotatable=0;points=[[0,0.5],[1,0.5]];portConstraint=eastwest;fontSize=12;whiteSpace=wrap;html=1;" parent="nUpQjzPemizc6PmGDul9-69" vertex="1">
          <mxGeometry y="84" width="200" height="24" as="geometry" />
        </mxCell>
        <mxCell id="nUpQjzPemizc6PmGDul9-73" value="issued_by" style="text;strokeColor=none;fillColor=none;spacingLeft=4;spacingRight=4;overflow=hidden;rotatable=0;points=[[0,0.5],[1,0.5]];portConstraint=eastwest;fontSize=12;whiteSpace=wrap;html=1;" parent="nUpQjzPemizc6PmGDul9-69" vertex="1">
          <mxGeometry y="108" width="200" height="30" as="geometry" />
        </mxCell>
        <mxCell id="nUpQjzPemizc6PmGDul9-74" value="issued_date" style="text;strokeColor=none;fillColor=none;spacingLeft=4;spacingRight=4;overflow=hidden;rotatable=0;points=[[0,0.5],[1,0.5]];portConstraint=eastwest;fontSize=12;whiteSpace=wrap;html=1;" parent="nUpQjzPemizc6PmGDul9-69" vertex="1">
          <mxGeometry y="138" width="200" height="30" as="geometry" />
        </mxCell>
        <mxCell id="nUpQjzPemizc6PmGDul9-75" value="validation" style="text;strokeColor=none;fillColor=none;spacingLeft=4;spacingRight=4;overflow=hidden;rotatable=0;points=[[0,0.5],[1,0.5]];portConstraint=eastwest;fontSize=12;whiteSpace=wrap;html=1;" parent="nUpQjzPemizc6PmGDul9-69" vertex="1">
          <mxGeometry y="168" width="200" height="30" as="geometry" />
        </mxCell>
        <mxCell id="nUpQjzPemizc6PmGDul9-76" value="docs" style="text;strokeColor=none;fillColor=none;spacingLeft=4;spacingRight=4;overflow=hidden;rotatable=0;points=[[0,0.5],[1,0.5]];portConstraint=eastwest;fontSize=12;whiteSpace=wrap;html=1;" parent="nUpQjzPemizc6PmGDul9-69" vertex="1">
          <mxGeometry y="198" width="200" height="30" as="geometry" />
        </mxCell>
        <mxCell id="nUpQjzPemizc6PmGDul9-77" value="project_id" style="text;strokeColor=none;fillColor=none;spacingLeft=4;spacingRight=4;overflow=hidden;rotatable=0;points=[[0,0.5],[1,0.5]];portConstraint=eastwest;fontSize=12;whiteSpace=wrap;html=1;" parent="nUpQjzPemizc6PmGDul9-69" vertex="1">
          <mxGeometry y="228" width="200" height="30" as="geometry" />
        </mxCell>
        <mxCell id="nUpQjzPemizc6PmGDul9-78" value="New_project_cost" style="swimlane;fontStyle=0;childLayout=stackLayout;horizontal=1;startSize=30;horizontalStack=0;resizeParent=1;resizeParentMax=0;resizeLast=0;collapsible=1;marginBottom=0;align=center;fontSize=14;" parent="1" vertex="1">
          <mxGeometry x="528" y="2238" width="200" height="198" as="geometry" />
        </mxCell>
        <mxCell id="nUpQjzPemizc6PmGDul9-79" value="id" style="text;strokeColor=none;fillColor=none;spacingLeft=4;spacingRight=4;overflow=hidden;rotatable=0;points=[[0,0.5],[1,0.5]];portConstraint=eastwest;fontSize=12;whiteSpace=wrap;html=1;" parent="nUpQjzPemizc6PmGDul9-78" vertex="1">
          <mxGeometry y="30" width="200" height="30" as="geometry" />
        </mxCell>
        <mxCell id="nUpQjzPemizc6PmGDul9-80" value="cost" style="text;strokeColor=none;fillColor=none;spacingLeft=4;spacingRight=4;overflow=hidden;rotatable=0;points=[[0,0.5],[1,0.5]];portConstraint=eastwest;fontSize=12;whiteSpace=wrap;html=1;" parent="nUpQjzPemizc6PmGDul9-78" vertex="1">
          <mxGeometry y="60" width="200" height="24" as="geometry" />
        </mxCell>
        <mxCell id="nUpQjzPemizc6PmGDul9-81" value="date" style="text;strokeColor=none;fillColor=none;spacingLeft=4;spacingRight=4;overflow=hidden;rotatable=0;points=[[0,0.5],[1,0.5]];portConstraint=eastwest;fontSize=12;whiteSpace=wrap;html=1;" parent="nUpQjzPemizc6PmGDul9-78" vertex="1">
          <mxGeometry y="84" width="200" height="24" as="geometry" />
        </mxCell>
        <mxCell id="nUpQjzPemizc6PmGDul9-82" value="next_followup_date" style="text;strokeColor=none;fillColor=none;spacingLeft=4;spacingRight=4;overflow=hidden;rotatable=0;points=[[0,0.5],[1,0.5]];portConstraint=eastwest;fontSize=12;whiteSpace=wrap;html=1;" parent="nUpQjzPemizc6PmGDul9-78" vertex="1">
          <mxGeometry y="108" width="200" height="30" as="geometry" />
        </mxCell>
        <mxCell id="nUpQjzPemizc6PmGDul9-83" value="talking_point" style="text;strokeColor=none;fillColor=none;spacingLeft=4;spacingRight=4;overflow=hidden;rotatable=0;points=[[0,0.5],[1,0.5]];portConstraint=eastwest;fontSize=12;whiteSpace=wrap;html=1;" parent="nUpQjzPemizc6PmGDul9-78" vertex="1">
          <mxGeometry y="138" width="200" height="30" as="geometry" />
        </mxCell>
        <mxCell id="nUpQjzPemizc6PmGDul9-84" value="project_id" style="text;strokeColor=none;fillColor=none;spacingLeft=4;spacingRight=4;overflow=hidden;rotatable=0;points=[[0,0.5],[1,0.5]];portConstraint=eastwest;fontSize=12;whiteSpace=wrap;html=1;" parent="nUpQjzPemizc6PmGDul9-78" vertex="1">
          <mxGeometry y="168" width="200" height="30" as="geometry" />
        </mxCell>
        <mxCell id="nUpQjzPemizc6PmGDul9-85" value="Department_Name" style="swimlane;fontStyle=0;childLayout=stackLayout;horizontal=1;startSize=30;horizontalStack=0;resizeParent=1;resizeParentMax=0;resizeLast=0;collapsible=1;marginBottom=0;align=center;fontSize=14;" parent="1" vertex="1">
          <mxGeometry x="-313" y="1676" width="200" height="114" as="geometry" />
        </mxCell>
        <mxCell id="nUpQjzPemizc6PmGDul9-86" value="id" style="text;strokeColor=none;fillColor=none;spacingLeft=4;spacingRight=4;overflow=hidden;rotatable=0;points=[[0,0.5],[1,0.5]];portConstraint=eastwest;fontSize=12;whiteSpace=wrap;html=1;" parent="nUpQjzPemizc6PmGDul9-85" vertex="1">
          <mxGeometry y="30" width="200" height="30" as="geometry" />
        </mxCell>
        <mxCell id="nUpQjzPemizc6PmGDul9-87" value="name&lt;br&gt;&lt;br&gt;" style="text;strokeColor=none;fillColor=none;spacingLeft=4;spacingRight=4;overflow=hidden;rotatable=0;points=[[0,0.5],[1,0.5]];portConstraint=eastwest;fontSize=12;whiteSpace=wrap;html=1;" parent="nUpQjzPemizc6PmGDul9-85" vertex="1">
          <mxGeometry y="60" width="200" height="30" as="geometry" />
        </mxCell>
        <mxCell id="nUpQjzPemizc6PmGDul9-89" value="status" style="text;strokeColor=none;fillColor=none;spacingLeft=4;spacingRight=4;overflow=hidden;rotatable=0;points=[[0,0.5],[1,0.5]];portConstraint=eastwest;fontSize=12;whiteSpace=wrap;html=1;" parent="nUpQjzPemizc6PmGDul9-85" vertex="1">
          <mxGeometry y="90" width="200" height="24" as="geometry" />
        </mxCell>
        <mxCell id="nUpQjzPemizc6PmGDul9-94" value="Team_management" style="swimlane;fontStyle=0;childLayout=stackLayout;horizontal=1;startSize=30;horizontalStack=0;resizeParent=1;resizeParentMax=0;resizeLast=0;collapsible=1;marginBottom=0;align=center;fontSize=14;" parent="1" vertex="1">
          <mxGeometry x="-356" y="1937" width="200" height="138" as="geometry" />
        </mxCell>
        <mxCell id="nUpQjzPemizc6PmGDul9-95" value="id" style="text;strokeColor=none;fillColor=none;spacingLeft=4;spacingRight=4;overflow=hidden;rotatable=0;points=[[0,0.5],[1,0.5]];portConstraint=eastwest;fontSize=12;whiteSpace=wrap;html=1;" parent="nUpQjzPemizc6PmGDul9-94" vertex="1">
          <mxGeometry y="30" width="200" height="30" as="geometry" />
        </mxCell>
        <mxCell id="nUpQjzPemizc6PmGDul9-96" value="team_leader" style="text;strokeColor=none;fillColor=none;spacingLeft=4;spacingRight=4;overflow=hidden;rotatable=0;points=[[0,0.5],[1,0.5]];portConstraint=eastwest;fontSize=12;whiteSpace=wrap;html=1;" parent="nUpQjzPemizc6PmGDul9-94" vertex="1">
          <mxGeometry y="60" width="200" height="24" as="geometry" />
        </mxCell>
        <mxCell id="nUpQjzPemizc6PmGDul9-97" value="team_member" style="text;strokeColor=none;fillColor=none;spacingLeft=4;spacingRight=4;overflow=hidden;rotatable=0;points=[[0,0.5],[1,0.5]];portConstraint=eastwest;fontSize=12;whiteSpace=wrap;html=1;" parent="nUpQjzPemizc6PmGDul9-94" vertex="1">
          <mxGeometry y="84" width="200" height="24" as="geometry" />
        </mxCell>
        <mxCell id="nUpQjzPemizc6PmGDul9-98" value="department_id" style="text;strokeColor=none;fillColor=none;spacingLeft=4;spacingRight=4;overflow=hidden;rotatable=0;points=[[0,0.5],[1,0.5]];portConstraint=eastwest;fontSize=12;whiteSpace=wrap;html=1;" parent="nUpQjzPemizc6PmGDul9-94" vertex="1">
          <mxGeometry y="108" width="200" height="30" as="geometry" />
        </mxCell>
        <mxCell id="nUpQjzPemizc6PmGDul9-137" style="edgeStyle=orthogonalEdgeStyle;rounded=0;orthogonalLoop=1;jettySize=auto;html=1;" parent="1" source="o_qiAfEK-X4W-5gXMjXQ-212" target="o_qiAfEK-X4W-5gXMjXQ-218" edge="1">
          <mxGeometry relative="1" as="geometry" />
        </mxCell>
        <mxCell id="nUpQjzPemizc6PmGDul9-138" style="edgeStyle=orthogonalEdgeStyle;rounded=0;orthogonalLoop=1;jettySize=auto;html=1;entryX=0;entryY=0.5;entryDx=0;entryDy=0;" parent="1" source="o_qiAfEK-X4W-5gXMjXQ-218" target="o_qiAfEK-X4W-5gXMjXQ-226" edge="1">
          <mxGeometry relative="1" as="geometry" />
        </mxCell>
        <mxCell id="nUpQjzPemizc6PmGDul9-139" style="edgeStyle=orthogonalEdgeStyle;rounded=0;orthogonalLoop=1;jettySize=auto;html=1;entryX=0;entryY=0.5;entryDx=0;entryDy=0;" parent="1" source="o_qiAfEK-X4W-5gXMjXQ-226" target="o_qiAfEK-X4W-5gXMjXQ-234" edge="1">
          <mxGeometry relative="1" as="geometry" />
        </mxCell>
        <mxCell id="nUpQjzPemizc6PmGDul9-140" style="edgeStyle=orthogonalEdgeStyle;rounded=0;orthogonalLoop=1;jettySize=auto;html=1;entryX=0;entryY=0.5;entryDx=0;entryDy=0;" parent="1" source="o_qiAfEK-X4W-5gXMjXQ-234" target="o_qiAfEK-X4W-5gXMjXQ-239" edge="1">
          <mxGeometry relative="1" as="geometry" />
        </mxCell>
        <mxCell id="nUpQjzPemizc6PmGDul9-141" value="" style="edgeStyle=entityRelationEdgeStyle;fontSize=12;html=1;endArrow=ERoneToMany;rounded=0;exitX=1;exitY=0.5;exitDx=0;exitDy=0;" parent="1" source="o_qiAfEK-X4W-5gXMjXQ-78" edge="1">
          <mxGeometry width="100" height="100" relative="1" as="geometry">
            <mxPoint x="-90" y="314" as="sourcePoint" />
            <mxPoint x="-52" y="377" as="targetPoint" />
            <Array as="points">
              <mxPoint x="-82" y="259" />
              <mxPoint x="-375" y="363" />
              <mxPoint x="-275" y="373" />
              <mxPoint x="-67" y="405" />
              <mxPoint x="-67" y="450" />
            </Array>
          </mxGeometry>
        </mxCell>
        <mxCell id="nUpQjzPemizc6PmGDul9-143" style="edgeStyle=orthogonalEdgeStyle;rounded=0;orthogonalLoop=1;jettySize=auto;html=1;entryX=0;entryY=0.5;entryDx=0;entryDy=0;" parent="1" source="o_qiAfEK-X4W-5gXMjXQ-78" target="o_qiAfEK-X4W-5gXMjXQ-297" edge="1">
          <mxGeometry relative="1" as="geometry" />
        </mxCell>
        <mxCell id="nUpQjzPemizc6PmGDul9-153" style="edgeStyle=orthogonalEdgeStyle;rounded=0;orthogonalLoop=1;jettySize=auto;html=1;exitX=1;exitY=0.5;exitDx=0;exitDy=0;" parent="1" source="o_qiAfEK-X4W-5gXMjXQ-297" target="o_qiAfEK-X4W-5gXMjXQ-266" edge="1">
          <mxGeometry relative="1" as="geometry">
            <mxPoint x="-62" y="1602" as="sourcePoint" />
          </mxGeometry>
        </mxCell>
        <mxCell id="nUpQjzPemizc6PmGDul9-154" style="edgeStyle=orthogonalEdgeStyle;rounded=0;orthogonalLoop=1;jettySize=auto;html=1;entryX=0;entryY=0.5;entryDx=0;entryDy=0;" parent="1" source="o_qiAfEK-X4W-5gXMjXQ-266" target="o_qiAfEK-X4W-5gXMjXQ-274" edge="1">
          <mxGeometry relative="1" as="geometry" />
        </mxCell>
        <mxCell id="nUpQjzPemizc6PmGDul9-155" value="System_bank_Details" style="swimlane;fontStyle=0;childLayout=stackLayout;horizontal=1;startSize=30;horizontalStack=0;resizeParent=1;resizeParentMax=0;resizeLast=0;collapsible=1;marginBottom=0;align=center;fontSize=14;" parent="1" vertex="1">
          <mxGeometry x="87" y="1340" width="190" height="264" as="geometry" />
        </mxCell>
        <mxCell id="nUpQjzPemizc6PmGDul9-156" value="name&lt;br&gt;&lt;br&gt;" style="text;strokeColor=none;fillColor=none;spacingLeft=4;spacingRight=4;overflow=hidden;rotatable=0;points=[[0,0.5],[1,0.5]];portConstraint=eastwest;fontSize=12;whiteSpace=wrap;html=1;" parent="nUpQjzPemizc6PmGDul9-155" vertex="1">
          <mxGeometry y="30" width="190" height="30" as="geometry" />
        </mxCell>
        <mxCell id="nUpQjzPemizc6PmGDul9-157" value="branch_name" style="text;strokeColor=none;fillColor=none;spacingLeft=4;spacingRight=4;overflow=hidden;rotatable=0;points=[[0,0.5],[1,0.5]];portConstraint=eastwest;fontSize=12;whiteSpace=wrap;html=1;" parent="nUpQjzPemizc6PmGDul9-155" vertex="1">
          <mxGeometry y="60" width="190" height="24" as="geometry" />
        </mxCell>
        <mxCell id="nUpQjzPemizc6PmGDul9-158" value="IFSC" style="text;strokeColor=none;fillColor=none;spacingLeft=4;spacingRight=4;overflow=hidden;rotatable=0;points=[[0,0.5],[1,0.5]];portConstraint=eastwest;fontSize=12;whiteSpace=wrap;html=1;" parent="nUpQjzPemizc6PmGDul9-155" vertex="1">
          <mxGeometry y="84" width="190" height="30" as="geometry" />
        </mxCell>
        <mxCell id="nUpQjzPemizc6PmGDul9-159" value="account_name" style="text;strokeColor=none;fillColor=none;spacingLeft=4;spacingRight=4;overflow=hidden;rotatable=0;points=[[0,0.5],[1,0.5]];portConstraint=eastwest;fontSize=12;whiteSpace=wrap;html=1;" parent="nUpQjzPemizc6PmGDul9-155" vertex="1">
          <mxGeometry y="114" width="190" height="30" as="geometry" />
        </mxCell>
        <mxCell id="nUpQjzPemizc6PmGDul9-160" value="account_no" style="text;strokeColor=none;fillColor=none;spacingLeft=4;spacingRight=4;overflow=hidden;rotatable=0;points=[[0,0.5],[1,0.5]];portConstraint=eastwest;fontSize=12;whiteSpace=wrap;html=1;" parent="nUpQjzPemizc6PmGDul9-155" vertex="1">
          <mxGeometry y="144" width="190" height="30" as="geometry" />
        </mxCell>
        <mxCell id="nUpQjzPemizc6PmGDul9-161" value="logo" style="text;strokeColor=none;fillColor=none;spacingLeft=4;spacingRight=4;overflow=hidden;rotatable=0;points=[[0,0.5],[1,0.5]];portConstraint=eastwest;fontSize=12;whiteSpace=wrap;html=1;" parent="nUpQjzPemizc6PmGDul9-155" vertex="1">
          <mxGeometry y="174" width="190" height="30" as="geometry" />
        </mxCell>
        <mxCell id="nUpQjzPemizc6PmGDul9-162" value="account_type" style="text;strokeColor=none;fillColor=none;spacingLeft=4;spacingRight=4;overflow=hidden;rotatable=0;points=[[0,0.5],[1,0.5]];portConstraint=eastwest;fontSize=12;whiteSpace=wrap;html=1;" parent="nUpQjzPemizc6PmGDul9-155" vertex="1">
          <mxGeometry y="204" width="190" height="30" as="geometry" />
        </mxCell>
        <mxCell id="nUpQjzPemizc6PmGDul9-163" value="company_id" style="text;strokeColor=none;fillColor=none;spacingLeft=4;spacingRight=4;overflow=hidden;rotatable=0;points=[[0,0.5],[1,0.5]];portConstraint=eastwest;fontSize=12;whiteSpace=wrap;html=1;" parent="nUpQjzPemizc6PmGDul9-155" vertex="1">
          <mxGeometry y="234" width="190" height="30" as="geometry" />
        </mxCell>
        <mxCell id="nUpQjzPemizc6PmGDul9-164" style="edgeStyle=orthogonalEdgeStyle;rounded=0;orthogonalLoop=1;jettySize=auto;html=1;" parent="1" source="o_qiAfEK-X4W-5gXMjXQ-297" target="nUpQjzPemizc6PmGDul9-163" edge="1">
          <mxGeometry relative="1" as="geometry" />
        </mxCell>
        <mxCell id="nUpQjzPemizc6PmGDul9-165" style="edgeStyle=orthogonalEdgeStyle;rounded=0;orthogonalLoop=1;jettySize=auto;html=1;entryX=0;entryY=0.5;entryDx=0;entryDy=0;" parent="1" source="nUpQjzPemizc6PmGDul9-163" target="o_qiAfEK-X4W-5gXMjXQ-316" edge="1">
          <mxGeometry relative="1" as="geometry" />
        </mxCell>
        <mxCell id="ekY4RGUX3IoEzJAGvHgd-1" style="edgeStyle=orthogonalEdgeStyle;rounded=0;orthogonalLoop=1;jettySize=auto;html=1;entryX=0;entryY=0.5;entryDx=0;entryDy=0;" parent="1" source="nUpQjzPemizc6PmGDul9-86" target="nUpQjzPemizc6PmGDul9-98" edge="1">
          <mxGeometry relative="1" as="geometry" />
        </mxCell>
        <mxCell id="ekY4RGUX3IoEzJAGvHgd-3" style="edgeStyle=orthogonalEdgeStyle;rounded=0;orthogonalLoop=1;jettySize=auto;html=1;" parent="1" edge="1">
          <mxGeometry relative="1" as="geometry">
            <mxPoint x="-278" y="36.000000000000114" as="sourcePoint" />
            <mxPoint x="-378" y="1725" as="targetPoint" />
          </mxGeometry>
        </mxCell>
        <mxCell id="ekY4RGUX3IoEzJAGvHgd-8" style="edgeStyle=orthogonalEdgeStyle;rounded=0;orthogonalLoop=1;jettySize=auto;html=1;exitX=0;exitY=0.5;exitDx=0;exitDy=0;entryX=0;entryY=0.5;entryDx=0;entryDy=0;" parent="1" source="o_qiAfEK-X4W-5gXMjXQ-2" target="nUpQjzPemizc6PmGDul9-56" edge="1">
          <mxGeometry relative="1" as="geometry" />
        </mxCell>
        <mxCell id="ekY4RGUX3IoEzJAGvHgd-29" style="edgeStyle=orthogonalEdgeStyle;rounded=0;orthogonalLoop=1;jettySize=auto;html=1;entryX=1;entryY=0.5;entryDx=0;entryDy=0;" parent="1" source="nUpQjzPemizc6PmGDul9-44" target="nUpQjzPemizc6PmGDul9-61" edge="1">
          <mxGeometry relative="1" as="geometry" />
        </mxCell>
        <mxCell id="ekY4RGUX3IoEzJAGvHgd-30" style="edgeStyle=orthogonalEdgeStyle;rounded=0;orthogonalLoop=1;jettySize=auto;html=1;entryX=0;entryY=0.5;entryDx=0;entryDy=0;" parent="1" source="nUpQjzPemizc6PmGDul9-44" target="nUpQjzPemizc6PmGDul9-68" edge="1">
          <mxGeometry relative="1" as="geometry" />
        </mxCell>
        <mxCell id="ekY4RGUX3IoEzJAGvHgd-31" style="edgeStyle=orthogonalEdgeStyle;rounded=0;orthogonalLoop=1;jettySize=auto;html=1;" parent="1" source="nUpQjzPemizc6PmGDul9-68" target="nUpQjzPemizc6PmGDul9-77" edge="1">
          <mxGeometry relative="1" as="geometry" />
        </mxCell>
        <mxCell id="ekY4RGUX3IoEzJAGvHgd-32" style="edgeStyle=orthogonalEdgeStyle;rounded=0;orthogonalLoop=1;jettySize=auto;html=1;entryX=0;entryY=0.5;entryDx=0;entryDy=0;" parent="1" source="nUpQjzPemizc6PmGDul9-77" target="nUpQjzPemizc6PmGDul9-84" edge="1">
          <mxGeometry relative="1" as="geometry" />
        </mxCell>
        <mxCell id="mRAegPbo3mLIhl_PYYLt-19" value="Department_Designation" style="swimlane;fontStyle=0;childLayout=stackLayout;horizontal=1;startSize=30;horizontalStack=0;resizeParent=1;resizeParentMax=0;resizeLast=0;collapsible=1;marginBottom=0;align=center;fontSize=14;" vertex="1" parent="1">
          <mxGeometry x="-45" y="1678" width="200" height="138" as="geometry" />
        </mxCell>
        <mxCell id="mRAegPbo3mLIhl_PYYLt-20" value="id" style="text;strokeColor=none;fillColor=none;spacingLeft=4;spacingRight=4;overflow=hidden;rotatable=0;points=[[0,0.5],[1,0.5]];portConstraint=eastwest;fontSize=12;whiteSpace=wrap;html=1;" vertex="1" parent="mRAegPbo3mLIhl_PYYLt-19">
          <mxGeometry y="30" width="200" height="30" as="geometry" />
        </mxCell>
        <mxCell id="mRAegPbo3mLIhl_PYYLt-22" value="designation" style="text;strokeColor=none;fillColor=none;spacingLeft=4;spacingRight=4;overflow=hidden;rotatable=0;points=[[0,0.5],[1,0.5]];portConstraint=eastwest;fontSize=12;whiteSpace=wrap;html=1;" vertex="1" parent="mRAegPbo3mLIhl_PYYLt-19">
          <mxGeometry y="60" width="200" height="24" as="geometry" />
        </mxCell>
        <mxCell id="mRAegPbo3mLIhl_PYYLt-23" value="roles" style="text;strokeColor=none;fillColor=none;spacingLeft=4;spacingRight=4;overflow=hidden;rotatable=0;points=[[0,0.5],[1,0.5]];portConstraint=eastwest;fontSize=12;whiteSpace=wrap;html=1;" vertex="1" parent="mRAegPbo3mLIhl_PYYLt-19">
          <mxGeometry y="84" width="200" height="24" as="geometry" />
        </mxCell>
        <mxCell id="mRAegPbo3mLIhl_PYYLt-21" value="department_id" style="text;strokeColor=none;fillColor=none;spacingLeft=4;spacingRight=4;overflow=hidden;rotatable=0;points=[[0,0.5],[1,0.5]];portConstraint=eastwest;fontSize=12;whiteSpace=wrap;html=1;" vertex="1" parent="mRAegPbo3mLIhl_PYYLt-19">
          <mxGeometry y="108" width="200" height="30" as="geometry" />
        </mxCell>
        <mxCell id="mRAegPbo3mLIhl_PYYLt-28" value="Department_Label" style="swimlane;fontStyle=0;childLayout=stackLayout;horizontal=1;startSize=30;horizontalStack=0;resizeParent=1;resizeParentMax=0;resizeLast=0;collapsible=1;marginBottom=0;align=center;fontSize=14;" vertex="1" parent="1">
          <mxGeometry x="236" y="1678" width="200" height="138" as="geometry" />
        </mxCell>
        <mxCell id="mRAegPbo3mLIhl_PYYLt-29" value="id" style="text;strokeColor=none;fillColor=none;spacingLeft=4;spacingRight=4;overflow=hidden;rotatable=0;points=[[0,0.5],[1,0.5]];portConstraint=eastwest;fontSize=12;whiteSpace=wrap;html=1;" vertex="1" parent="mRAegPbo3mLIhl_PYYLt-28">
          <mxGeometry y="30" width="200" height="30" as="geometry" />
        </mxCell>
        <mxCell id="mRAegPbo3mLIhl_PYYLt-30" value="label_name&lt;div&gt;&lt;br/&gt;&lt;/div&gt;" style="text;strokeColor=none;fillColor=none;spacingLeft=4;spacingRight=4;overflow=hidden;rotatable=0;points=[[0,0.5],[1,0.5]];portConstraint=eastwest;fontSize=12;whiteSpace=wrap;html=1;" vertex="1" parent="mRAegPbo3mLIhl_PYYLt-28">
          <mxGeometry y="60" width="200" height="30" as="geometry" />
        </mxCell>
        <mxCell id="mRAegPbo3mLIhl_PYYLt-32" value="status" style="text;strokeColor=none;fillColor=none;spacingLeft=4;spacingRight=4;overflow=hidden;rotatable=0;points=[[0,0.5],[1,0.5]];portConstraint=eastwest;fontSize=12;whiteSpace=wrap;html=1;" vertex="1" parent="mRAegPbo3mLIhl_PYYLt-28">
          <mxGeometry y="90" width="200" height="24" as="geometry" />
        </mxCell>
        <mxCell id="mRAegPbo3mLIhl_PYYLt-31" value="designation_id" style="text;strokeColor=none;fillColor=none;spacingLeft=4;spacingRight=4;overflow=hidden;rotatable=0;points=[[0,0.5],[1,0.5]];portConstraint=eastwest;fontSize=12;whiteSpace=wrap;html=1;" vertex="1" parent="mRAegPbo3mLIhl_PYYLt-28">
          <mxGeometry y="114" width="200" height="24" as="geometry" />
        </mxCell>
        <mxCell id="mRAegPbo3mLIhl_PYYLt-37" value="Department_Grade" style="swimlane;fontStyle=0;childLayout=stackLayout;horizontal=1;startSize=30;horizontalStack=0;resizeParent=1;resizeParentMax=0;resizeLast=0;collapsible=1;marginBottom=0;align=center;fontSize=14;" vertex="1" parent="1">
          <mxGeometry x="490" y="1678" width="200" height="144" as="geometry" />
        </mxCell>
        <mxCell id="mRAegPbo3mLIhl_PYYLt-38" value="id" style="text;strokeColor=none;fillColor=none;spacingLeft=4;spacingRight=4;overflow=hidden;rotatable=0;points=[[0,0.5],[1,0.5]];portConstraint=eastwest;fontSize=12;whiteSpace=wrap;html=1;" vertex="1" parent="mRAegPbo3mLIhl_PYYLt-37">
          <mxGeometry y="30" width="200" height="30" as="geometry" />
        </mxCell>
        <mxCell id="mRAegPbo3mLIhl_PYYLt-39" value="grade_name" style="text;strokeColor=none;fillColor=none;spacingLeft=4;spacingRight=4;overflow=hidden;rotatable=0;points=[[0,0.5],[1,0.5]];portConstraint=eastwest;fontSize=12;whiteSpace=wrap;html=1;" vertex="1" parent="mRAegPbo3mLIhl_PYYLt-37">
          <mxGeometry y="60" width="200" height="30" as="geometry" />
        </mxCell>
        <mxCell id="mRAegPbo3mLIhl_PYYLt-48" value="status" style="text;strokeColor=none;fillColor=none;spacingLeft=4;spacingRight=4;overflow=hidden;rotatable=0;points=[[0,0.5],[1,0.5]];portConstraint=eastwest;fontSize=12;whiteSpace=wrap;html=1;" vertex="1" parent="mRAegPbo3mLIhl_PYYLt-37">
          <mxGeometry y="90" width="200" height="30" as="geometry" />
        </mxCell>
        <mxCell id="mRAegPbo3mLIhl_PYYLt-40" value="label_id" style="text;strokeColor=none;fillColor=none;spacingLeft=4;spacingRight=4;overflow=hidden;rotatable=0;points=[[0,0.5],[1,0.5]];portConstraint=eastwest;fontSize=12;whiteSpace=wrap;html=1;" vertex="1" parent="mRAegPbo3mLIhl_PYYLt-37">
          <mxGeometry y="120" width="200" height="24" as="geometry" />
        </mxCell>
        <mxCell id="mRAegPbo3mLIhl_PYYLt-46" style="edgeStyle=orthogonalEdgeStyle;rounded=0;orthogonalLoop=1;jettySize=auto;html=1;entryX=0;entryY=0.5;entryDx=0;entryDy=0;" edge="1" parent="1" source="nUpQjzPemizc6PmGDul9-86" target="mRAegPbo3mLIhl_PYYLt-21">
          <mxGeometry relative="1" as="geometry" />
        </mxCell>
        <mxCell id="mRAegPbo3mLIhl_PYYLt-47" style="edgeStyle=orthogonalEdgeStyle;rounded=0;orthogonalLoop=1;jettySize=auto;html=1;entryX=0;entryY=0.5;entryDx=0;entryDy=0;" edge="1" parent="1" source="mRAegPbo3mLIhl_PYYLt-20" target="mRAegPbo3mLIhl_PYYLt-31">
          <mxGeometry relative="1" as="geometry" />
        </mxCell>
        <mxCell id="mRAegPbo3mLIhl_PYYLt-49" style="edgeStyle=orthogonalEdgeStyle;rounded=0;orthogonalLoop=1;jettySize=auto;html=1;entryX=0;entryY=0.5;entryDx=0;entryDy=0;" edge="1" parent="1" source="mRAegPbo3mLIhl_PYYLt-29" target="mRAegPbo3mLIhl_PYYLt-40">
          <mxGeometry relative="1" as="geometry" />
        </mxCell>
      </root>
    </mxGraphModel>
  </diagram>
</mxfile>
